<?xml version="1.0" standalone="yes"?>

<svg version="1.1" viewBox="0.0 0.0 906.4068241469816 529.1364829396325" fill="none" stroke="none" stroke-linecap="square" stroke-miterlimit="10" xmlns="http://www.w3.org/2000/svg" xmlns:xlink="http://www.w3.org/1999/xlink"><clipPath id="p.0"><path d="m0 0l906.4068 0l0 529.1365l-906.4068 0l0 -529.1365z" clip-rule="nonzero"></path></clipPath><g clip-path="url(#p.0)"><path fill="#000000" fill-opacity="0.0" d="m0 0l906.4068 0l0 529.1365l-906.4068 0z" fill-rule="nonzero"></path><path fill="#000000" fill-opacity="0.0" d="m45.278214 136.90027l283.44098 0l0 283.44095l-283.44098 0z" fill-rule="nonzero"></path><path fill="#000000" fill-opacity="0.0" d="m328.71918 136.90027l94.480316 -94.480316l0 283.44095l-94.480316 94.480316z" fill-rule="nonzero"></path><path fill="#000000" fill-opacity="0.0" d="m45.278214 136.90027l94.480316 -94.480316l283.44098 0l-94.480316 94.480316z" fill-rule="nonzero"></path><path fill="#000000" fill-opacity="0.0" d="m45.278214 136.90027l94.480316 -94.480316l283.44098 0l0 283.44095l-94.480316 94.480316l-283.44098 0zm0 0l283.44098 0l94.480316 -94.480316m-94.480316 94.480316l0 283.44095" fill-rule="nonzero"></path><path fill="#000000" fill-opacity="0.2" d="m328.71918 136.90027l94.480316 -94.480316l0 283.44095l-94.480316 94.480316z" fill-rule="nonzero"></path><path fill="#ffffff" fill-opacity="0.2" d="m45.278214 136.90027l94.480316 -94.480316l283.44098 0l-94.480316 94.480316z" fill-rule="nonzero"></path><path stroke="#000000" stroke-width="2.0" stroke-linejoin="round" stroke-linecap="butt" d="m45.278214 136.90027l94.480316 -94.480316l283.44098 0l0 283.44095l-94.480316 94.480316l-283.44098 0zm0 0l283.44098 0l94.480316 -94.480316m-94.480316 94.480316l0 283.44095" fill-rule="nonzero"></path><path fill="#000000" fill-opacity="0.0" d="m423.19946 42.647232l6.0667725 0l4.6259155 -8.012142l0 12.709122l7.2872314 -12.621819l0 12.817501l7.497345 -12.986088l0 12.986088l7.469055 -12.936718l0 12.545353l4.171936 -7.2257996l5.543518 0" fill-rule="nonzero"></path><path stroke="#000000" stroke-width="2.0" stroke-linejoin="round" stroke-linecap="butt" d="m423.19946 42.647232l6.0667725 0l4.6259155 -8.012142l0 12.709122l7.2872314 -12.621819l0 12.817501l7.497345 -12.986088l0 12.986088l7.469055 -12.936718l0 12.545353l4.171936 -7.2257996l5.543518 0" fill-rule="nonzero"></path><path fill="#000000" fill-opacity="0.0" d="m327.84253 136.66823l6.066742 0l4.625946 -8.012146l0 12.709122l7.287201 -12.621811l0 12.81749l7.497345 -12.986084l0 12.986084l7.469055 -12.936707l0 12.545349l4.171936 -7.2257996l5.5435486 0" fill-rule="nonzero"></path><path stroke="#000000" stroke-width="2.0" stroke-linejoin="round" stroke-linecap="butt" d="m327.84253 136.66823l6.066742 0l4.625946 -8.012146l0 12.709122l7.287201 -12.621811l0 12.81749l7.497345 -12.986084l0 12.986084l7.469055 -12.936707l0 12.545349l4.171936 -7.2257996l5.5435486 0" fill-rule="nonzero"></path><path fill="#000000" fill-opacity="0.0" d="m375.80054 89.58161l6.066742 0l4.625946 -8.012138l0 12.709122l7.287201 -12.621819l0 12.817497l7.497345 -12.986084l0 12.986084l7.469055 -12.936714l0 12.545349l4.171936 -7.2257996l5.5435486 0" fill-rule="nonzero"></path><path stroke="#000000" stroke-width="2.0" stroke-linejoin="round" stroke-linecap="butt" d="m375.80054 89.58161l6.066742 0l4.625946 -8.012138l0 12.709122l7.287201 -12.621819l0 12.817497l7.497345 -12.986084l0 12.986084l7.469055 -12.936714l0 12.545349l4.171936 -7.2257996l5.5435486 0" fill-rule="nonzero"></path><path fill="#000000" fill-opacity="0.0" d="m297.05478 165.28844l4.6492615 -3.898178l-1.6031189 -9.112442l8.166199 9.7395935l-2.5255737 -14.355057l8.23584 9.822647l-2.5985718 -14.769241l8.344147 9.9518585l-2.588562 -14.713226l8.060974 9.61409l-1.4457397 -8.21814l4.2482605 -3.561966" fill-rule="nonzero"></path><path stroke="#000000" stroke-width="2.0" stroke-linejoin="round" stroke-linecap="butt" d="m297.05478 165.28844l4.6492615 -3.898178l-1.6031189 -9.112442l8.166199 9.7395935l-2.5255737 -14.355057l8.23584 9.822647l-2.5985718 -14.769241l8.344147 9.9518585l-2.588562 -14.713226l8.060974 9.61409l-1.4457397 -8.21814l4.2482605 -3.561966" fill-rule="nonzero"></path><path fill="#000000" fill-opacity="0.0" d="m156.24246 167.10208l4.649246 -3.8981628l-1.6031036 -9.112457l8.166199 9.7395935l-2.5255737 -14.355057l8.23584 9.822647l-2.598587 -14.769241l8.344147 9.9518585l-2.5885468 -14.713226l8.060959 9.61409l-1.4457397 -8.218124l4.2482605 -3.5619812" fill-rule="nonzero"></path><path stroke="#000000" stroke-width="2.0" stroke-linejoin="round" stroke-linecap="butt" d="m156.24246 167.10208l4.649246 -3.8981628l-1.6031036 -9.112457l8.166199 9.7395935l-2.5255737 -14.355057l8.23584 9.822647l-2.598587 -14.769241l8.344147 9.9518585l-2.5885468 -14.713226l8.060959 9.61409l-1.4457397 -8.218124l4.2482605 -3.5619812" fill-rule="nonzero"></path><path fill="#000000" fill-opacity="0.0" d="m139.70341 43.034122l0 218.80316" fill-rule="nonzero"></path><path stroke="#000000" stroke-width="1.0" stroke-linejoin="round" stroke-linecap="butt" stroke-dasharray="4.0,3.0" d="m139.70341 43.034122l0 218.80316" fill-rule="nonzero"></path><path fill="#000000" fill-opacity="0.0" d="m45.278214 419.7244l63.905518 -63.905487" fill-rule="nonzero"></path><path stroke="#000000" stroke-width="1.0" stroke-linejoin="round" stroke-linecap="butt" stroke-dasharray="4.0,3.0" d="m45.278214 419.7244l63.905518 -63.905487" fill-rule="nonzero"></path><path fill="#000000" fill-opacity="0.0" d="m422.6929 326.25198l-231.55904 0" fill-rule="nonzero"></path><path stroke="#000000" stroke-width="1.0" stroke-linejoin="round" stroke-linecap="butt" stroke-dasharray="4.0,3.0" d="m422.6929 326.25198l-231.55904 0" fill-rule="nonzero"></path><path fill="#000000" fill-opacity="0.0" d="m139.70341 326.25198l0 -55.433075" fill-rule="nonzero"></path><path stroke="#cc4125" stroke-width="2.0" stroke-linejoin="round" stroke-linecap="butt" d="m139.70341 326.25198l0 -43.433075" fill-rule="evenodd"></path><path fill="#cc4125" stroke="#cc4125" stroke-width="2.0" stroke-linecap="butt" d="m143.00688 282.8189l-3.3034668 -9.076202l-3.3034668 9.076202z" fill-rule="evenodd"></path><path fill="#000000" fill-opacity="0.0" d="m139.90552 324.81628l-29.039375 29.039368" fill-rule="nonzero"></path><path stroke="#cc4125" stroke-width="2.0" stroke-linejoin="round" stroke-linecap="butt" d="m139.90552 324.81628l-20.5541 20.554077" fill-rule="evenodd"></path><path fill="#cc4125" stroke="#cc4125" stroke-width="2.0" stroke-linecap="butt" d="m117.01552 343.03445l-4.081932 8.753754l8.753738 -4.0819397z" fill-rule="evenodd"></path><path fill="#000000" fill-opacity="0.0" d="m139.05249 326.1286l47.74803 0" fill-rule="nonzero"></path><path stroke="#cc4125" stroke-width="2.0" stroke-linejoin="round" stroke-linecap="butt" d="m139.05249 326.1286l35.74803 0" fill-rule="evenodd"></path><path fill="#cc4125" stroke="#cc4125" stroke-width="2.0" stroke-linecap="butt" d="m174.80052 329.43207l9.076202 -3.3034668l-9.076202 -3.3034668z" fill-rule="evenodd"></path><path fill="#000000" fill-opacity="0.0" d="m81.32809 318.1181l29.039368 0l0 37.35434l-29.039368 0z" fill-rule="nonzero"></path><path fill="#cc4125" d="m95.04684 342.97562q0 0.359375 -0.015625 0.703125q0 0.328125 -0.046875 0.59375l1.59375 -0.0625l0 0.828125l-4.84375 0l0 -0.625q0.5 -0.03125 0.8125 -0.1875q0.328125 -0.15625 0.5 -0.421875q0.1875 -0.28125 0.265625 -0.671875q0.078125 -0.390625 0.078125 -0.890625l-0.015625 -8.96875l-0.046875 0l-2.28125 1.484375l-0.375 -0.5625l3.703125 -2.765625l0.640625 0l0.03125 11.546875z" fill-rule="nonzero"></path><path fill="#000000" fill-opacity="0.0" d="m178.5328 288.89764l29.039368 0l0 37.35434l-29.039368 0z" fill-rule="nonzero"></path><path fill="#cc4125" d="m189.93906 304.302q0.1875 0.203125 0.265625 0.421875q0.078125 0.21875 0.078125 0.421875q0 0.125 -0.046875 0.28125q-0.046875 0.15625 -0.15625 0.296875q-0.109375 0.125 -0.28125 0.21875q-0.171875 0.09375 -0.4375 0.09375q-0.421875 -0.03125 -0.65625 -0.328125q-0.21875 -0.296875 -0.21875 -0.734375q0 -0.390625 0.25 -0.875q0.25 -0.484375 0.75 -0.90625q0.5 -0.421875 1.234375 -0.703125q0.75 -0.28125 1.734375 -0.28125q0.75 0 1.46875 0.1875q0.71875 0.171875 1.28125 0.578125q0.5625 0.390625 0.90625 1.0625q0.34375 0.65625 0.34375 1.625q0 0.484375 -0.21875 1.03125q-0.203125 0.546875 -0.65625 1.1875q-0.4375 0.625 -1.140625 1.34375q-0.703125 0.71875 -1.71875 1.546875q-0.65625 0.53125 -1.203125 1.046875q-0.53125 0.5 -0.9375 0.96875q-0.390625 0.453125 -0.640625 0.859375q-0.234375 0.40625 -0.296875 0.734375l3.359375 0.09375q0.703125 0.015625 1.28125 0.03125q0.578125 0 1.0 -0.109375q0.421875 -0.125 0.65625 -0.40625q0.234375 -0.28125 0.234375 -0.828125l0.578125 0l-0.125 2.65625l-8.21875 0q0 -1.0 0.3125 -1.78125q0.328125 -0.78125 0.84375 -1.4375q0.53125 -0.671875 1.203125 -1.28125q0.671875 -0.609375 1.390625 -1.296875q1.234375 -1.171875 1.78125 -2.171875q0.546875 -1.015625 0.546875 -1.953125q0 -0.53125 -0.109375 -1.046875q-0.09375 -0.53125 -0.375 -0.953125q-0.265625 -0.421875 -0.71875 -0.6875q-0.4375 -0.265625 -1.125 -0.265625q-0.390625 0 -0.75 0.109375q-0.359375 0.109375 -0.65625 0.296875q-0.28125 0.171875 -0.5 0.421875q-0.203125 0.25 -0.3125 0.53125z" fill-rule="nonzero"></path><path fill="#000000" fill-opacity="0.0" d="m109.18372 251.5433l29.039375 0l0 37.35434l-29.039375 0z" fill-rule="nonzero"></path><path fill="#cc4125" d="m120.7306 266.96332q0.171875 0.1875 0.234375 0.390625q0.078125 0.203125 0.078125 0.390625q0 0.109375 -0.046875 0.265625q-0.046875 0.140625 -0.15625 0.265625q-0.09375 0.125 -0.265625 0.21875q-0.15625 0.09375 -0.40625 0.078125q-0.40625 -0.015625 -0.625 -0.296875q-0.203125 -0.28125 -0.203125 -0.6875q0 -0.390625 0.234375 -0.859375q0.25 -0.484375 0.71875 -0.890625q0.484375 -0.421875 1.203125 -0.703125q0.734375 -0.28125 1.71875 -0.28125q0.765625 0 1.453125 0.1875q0.703125 0.171875 1.21875 0.578125q0.53125 0.390625 0.84375 1.015625q0.328125 0.625 0.328125 1.515625q0 0.453125 -0.171875 0.90625q-0.15625 0.453125 -0.515625 0.875q-0.359375 0.40625 -0.953125 0.765625q-0.59375 0.359375 -1.46875 0.625l0 0.03125q0.890625 0.09375 1.609375 0.390625q0.71875 0.296875 1.21875 0.765625q0.5 0.453125 0.765625 1.078125q0.28125 0.625 0.28125 1.359375q0 0.96875 -0.40625 1.6875q-0.390625 0.71875 -1.0625 1.1875q-0.65625 0.46875 -1.53125 0.703125q-0.859375 0.25 -1.78125 0.25q-1.03125 0 -1.796875 -0.25q-0.75 -0.25 -1.25 -0.625q-0.5 -0.390625 -0.75 -0.84375q-0.234375 -0.453125 -0.234375 -0.875q0 -0.421875 0.21875 -0.71875q0.234375 -0.3125 0.65625 -0.328125q0.265625 -0.015625 0.4375 0.078125q0.171875 0.078125 0.265625 0.21875q0.109375 0.125 0.140625 0.28125q0.046875 0.15625 0.046875 0.28125q0 0.203125 -0.0625 0.390625q-0.046875 0.1875 -0.140625 0.375q0.09375 0.328125 0.3125 0.5625q0.234375 0.21875 0.546875 0.359375q0.328125 0.140625 0.6875 0.21875q0.375 0.0625 0.765625 0.0625q0.671875 0 1.21875 -0.1875q0.5625 -0.1875 0.953125 -0.546875q0.390625 -0.375 0.59375 -0.90625q0.21875 -0.546875 0.21875 -1.25q0 -0.625 -0.140625 -1.21875q-0.140625 -0.59375 -0.515625 -1.046875q-0.375 -0.453125 -1.03125 -0.71875q-0.65625 -0.265625 -1.6875 -0.25q-0.328125 0 -0.6875 0.03125l0 -0.859375l0.765625 0q0.765625 0 1.265625 -0.265625q0.5 -0.28125 0.796875 -0.6875q0.3125 -0.40625 0.4375 -0.875q0.125 -0.46875 0.125 -0.859375q0 -0.578125 -0.109375 -1.078125q-0.09375 -0.515625 -0.359375 -0.875q-0.25 -0.359375 -0.6875 -0.5625q-0.4375 -0.21875 -1.078125 -0.21875q-0.4375 0 -0.8125 0.125q-0.375 0.125 -0.671875 0.328125q-0.28125 0.203125 -0.484375 0.453125q-0.1875 0.234375 -0.265625 0.46875z" fill-rule="nonzero"></path><path fill="#000000" fill-opacity="0.0" d="m422.47375 326.21155l6.066742 0l4.625946 -8.012146l0 12.709106l7.287201 -12.621796l0 12.817474l7.497345 -12.986084l0 12.986084l7.469055 -12.936707l0 12.545349l4.1719666 -7.2257996l5.543518 0" fill-rule="nonzero"></path><path stroke="#000000" stroke-width="2.0" stroke-linejoin="round" stroke-linecap="butt" d="m422.47375 326.21155l6.066742 0l4.625946 -8.012146l0 12.709106l7.287201 -12.621796l0 12.817474l7.497345 -12.986084l0 12.986084l7.469055 -12.936707l0 12.545349l4.1719666 -7.2257996l5.543518 0" fill-rule="nonzero"></path><path fill="#000000" fill-opacity="0.0" d="m327.1168 420.23254l6.0667725 0l4.6259155 -8.012146l0 12.709106l7.2872314 -12.621796l0 12.817474l7.497345 -12.986084l0 12.986084l7.4690247 -12.936707l0 12.545349l4.1719666 -7.2257996l5.543518 0" fill-rule="nonzero"></path><path stroke="#000000" stroke-width="2.0" stroke-linejoin="round" stroke-linecap="butt" d="m327.1168 420.23254l6.0667725 0l4.6259155 -8.012146l0 12.709106l7.2872314 -12.621796l0 12.817474l7.497345 -12.986084l0 12.986084l7.4690247 -12.936707l0 12.545349l4.1719666 -7.2257996l5.543518 0" fill-rule="nonzero"></path><path fill="#000000" fill-opacity="0.0" d="m375.0748 373.1459l6.0667725 0l4.6259155 -8.0121155l0 12.709106l7.2872314 -12.621826l0 12.817505l7.497345 -12.986084l0 12.986084l7.4690247 -12.936707l0 12.545349l4.1719666 -7.2257996l5.543518 0" fill-rule="nonzero"></path><path stroke="#000000" stroke-width="2.0" stroke-linejoin="round" stroke-linecap="butt" d="m375.0748 373.1459l6.0667725 0l4.6259155 -8.0121155l0 12.709106l7.2872314 -12.621826l0 12.817505l7.497345 -12.986084l0 12.986084l7.4690247 -12.936707l0 12.545349l4.1719666 -7.2257996l5.543518 0" fill-rule="nonzero"></path><path fill="#000000" fill-opacity="0.0" d="m14.704404 448.85272l4.6492395 -3.8981628l-1.6030979 -9.112457l8.166193 9.7395935l-2.5255623 -14.355072l8.23583 9.822662l-2.598587 -14.769226l8.344154 9.951843l-2.5885468 -14.713226l8.060959 9.614105l-1.4457436 -8.21814l4.248268 -3.5619812" fill-rule="nonzero"></path><path stroke="#000000" stroke-width="2.0" stroke-linejoin="round" stroke-linecap="butt" d="m14.704404 448.85272l4.6492395 -3.8981628l-1.6030979 -9.112457l8.166193 9.7395935l-2.5255623 -14.355072l8.23583 9.822662l-2.598587 -14.769226l8.344154 9.951843l-2.5885468 -14.713226l8.060959 9.614105l-1.4457436 -8.21814l4.248268 -3.5619812" fill-rule="nonzero"></path><path fill="#000000" fill-opacity="0.0" d="m296.32907 448.85272l4.649231 -3.8981628l-1.6030884 -9.112457l8.166199 9.7395935l-2.5255737 -14.355072l8.23584 9.822662l-2.5986023 -14.769226l8.344177 9.951843l-2.588562 -14.713226l8.060944 9.614105l-1.4457397 -8.21814l4.248291 -3.5619812" fill-rule="nonzero"></path><path stroke="#000000" stroke-width="2.0" stroke-linejoin="round" stroke-linecap="butt" d="m296.32907 448.85272l4.649231 -3.8981628l-1.6030884 -9.112457l8.166199 9.7395935l-2.5255737 -14.355072l8.23584 9.822662l-2.5986023 -14.769226l8.344177 9.951843l-2.588562 -14.713226l8.060944 9.614105l-1.4457397 -8.21814l4.248291 -3.5619812" fill-rule="nonzero"></path><path fill="#000000" fill-opacity="0.0" d="m155.51674 450.66635l4.649246 -3.8981628l-1.6031036 -9.112457l8.166199 9.7395935l-2.5255737 -14.3550415l8.23584 9.822662l-2.598587 -14.769257l8.344147 9.951843l-2.5885468 -14.713196l8.060959 9.614075l-1.4457397 -8.21814l4.2482758 -3.5619812" fill-rule="nonzero"></path><path stroke="#000000" stroke-width="2.0" stroke-linejoin="round" stroke-linecap="butt" d="m155.51674 450.66635l4.649246 -3.8981628l-1.6031036 -9.112457l8.166199 9.7395935l-2.5255737 -14.3550415l8.23584 9.822662l-2.598587 -14.769257l8.344147 9.951843l-2.5885468 -14.713196l8.060959 9.614075l-1.4457397 -8.21814l4.2482758 -3.5619812" fill-rule="nonzero"></path><path fill="#000000" fill-opacity="0.0" d="m143.0172 20.352312l0 0c0 -2.1532478 1.7455597 -3.8988 3.8988037 -3.8988l0 0c1.0340271 0 2.025711 0.4107647 2.7568665 1.1419315c0.73117065 0.73116684 1.1419373 1.7228432 1.1419373 2.7568684l0 0c0 2.1532478 -1.7455597 3.8988 -3.8988037 3.8988l0 0c-2.153244 0 -3.8988037 -1.7455521 -3.8988037 -3.8988z" fill-rule="nonzero"></path><path stroke="#000000" stroke-width="2.0" stroke-linejoin="round" stroke-linecap="butt" d="m143.0172 20.352312l0 0c0 -2.1532478 1.7455597 -3.8988 3.8988037 -3.8988l0 0c1.0340271 0 2.025711 0.4107647 2.7568665 1.1419315c0.73117065 0.73116684 1.1419373 1.7228432 1.1419373 2.7568684l0 0c0 2.1532478 -1.7455597 3.8988 -3.8988037 3.8988l0 0c-2.153244 0 -3.8988037 -1.7455521 -3.8988037 -3.8988z" fill-rule="nonzero"></path><path fill="#000000" fill-opacity="0.0" d="m155.52162 20.352312l0 0c0 -2.1532478 1.7455444 -3.8988 3.8987885 -3.8988l0 0c1.0340271 0 2.025711 0.4107647 2.7568817 1.1419315c0.7311554 0.73116684 1.141922 1.7228432 1.141922 2.7568684l0 0c0 2.1532478 -1.7455444 3.8988 -3.8988037 3.8988l0 0c-2.153244 0 -3.8987885 -1.7455521 -3.8987885 -3.8988z" fill-rule="nonzero"></path><path stroke="#000000" stroke-width="2.0" stroke-linejoin="round" stroke-linecap="butt" d="m155.52162 20.352312l0 0c0 -2.1532478 1.7455444 -3.8988 3.8987885 -3.8988l0 0c1.0340271 0 2.025711 0.4107647 2.7568817 1.1419315c0.7311554 0.73116684 1.141922 1.7228432 1.141922 2.7568684l0 0c0 2.1532478 -1.7455444 3.8988 -3.8988037 3.8988l0 0c-2.153244 0 -3.8987885 -1.7455521 -3.8987885 -3.8988z" fill-rule="nonzero"></path><path fill="#000000" fill-opacity="0.0" d="m144.3647 25.066416l18.954391 0l-16.013199 16.011934l-4.2876587 -15.999268z" fill-rule="nonzero"></path><path stroke="#000000" stroke-width="2.0" stroke-linejoin="round" stroke-linecap="butt" d="m144.3647 25.066416l18.954391 0l-16.013199 16.011934l-4.2876587 -15.999268z" fill-rule="nonzero"></path><path fill="#000000" fill-opacity="0.0" d="m142.3202 15.249344l22.141739 0" fill-rule="nonzero"></path><path stroke="#000000" stroke-width="2.0" stroke-linejoin="round" stroke-linecap="butt" d="m142.3202 15.249344l22.141739 0" fill-rule="nonzero"></path><path fill="#000000" fill-opacity="0.0" d="m143.17848 15.249344l6.015747 -7.5275593" fill-rule="nonzero"></path><path stroke="#000000" stroke-width="2.0" stroke-linejoin="round" stroke-linecap="butt" d="m143.17848 15.249344l6.015747 -7.5275593" fill-rule="nonzero"></path><path fill="#000000" fill-opacity="0.0" d="m162.40814 15.112861l6.015747 -7.527559" fill-rule="nonzero"></path><path stroke="#000000" stroke-width="2.0" stroke-linejoin="round" stroke-linecap="butt" d="m162.40814 15.112861l6.015747 -7.527559" fill-rule="nonzero"></path><path fill="#000000" fill-opacity="0.0" d="m152.79265 15.249344l6.015747 -7.5275593" fill-rule="nonzero"></path><path stroke="#000000" stroke-width="2.0" stroke-linejoin="round" stroke-linecap="butt" d="m152.79265 15.249344l6.015747 -7.5275593" fill-rule="nonzero"></path><path fill="#000000" fill-opacity="0.0" d="m157.78346 15.249344l6.015747 -7.5275593" fill-rule="nonzero"></path><path stroke="#000000" stroke-width="2.0" stroke-linejoin="round" stroke-linecap="butt" d="m157.78346 15.249344l6.015747 -7.5275593" fill-rule="nonzero"></path><path fill="#000000" fill-opacity="0.0" d="m148.09842 15.249344l6.015747 -7.5275593" fill-rule="nonzero"></path><path stroke="#000000" stroke-width="2.0" stroke-linejoin="round" stroke-linecap="butt" d="m148.09842 15.249344l6.015747 -7.5275593" fill-rule="nonzero"></path><path fill="#000000" fill-opacity="0.0" d="m413.9831 21.69352l0 0c0 -2.1532478 1.7455444 -3.8988 3.8988037 -3.8988l0 0c1.0339966 0 2.0256958 0.4107647 2.7568665 1.1419315c0.73114014 0.73116684 1.1419067 1.7228432 1.1419067 2.7568684l0 0c0 2.1532478 -1.7455444 3.8988 -3.8987732 3.8988l0 0c-2.1532593 0 -3.8988037 -1.7455521 -3.8988037 -3.8988z" fill-rule="nonzero"></path><path stroke="#000000" stroke-width="2.0" stroke-linejoin="round" stroke-linecap="butt" d="m413.9831 21.69352l0 0c0 -2.1532478 1.7455444 -3.8988 3.8988037 -3.8988l0 0c1.0339966 0 2.0256958 0.4107647 2.7568665 1.1419315c0.73114014 0.73116684 1.1419067 1.7228432 1.1419067 2.7568684l0 0c0 2.1532478 -1.7455444 3.8988 -3.8987732 3.8988l0 0c-2.1532593 0 -3.8988037 -1.7455521 -3.8988037 -3.8988z" fill-rule="nonzero"></path><path fill="#000000" fill-opacity="0.0" d="m426.4875 21.69352l0 0c0 -2.1532478 1.745575 -3.8988 3.8988037 -3.8988l0 0c1.0340271 0 2.0256958 0.4107647 2.7568665 1.1419315c0.73117065 0.73116684 1.1419373 1.7228432 1.1419373 2.7568684l0 0c0 2.1532478 -1.7455444 3.8988 -3.8988037 3.8988l0 0c-2.1532288 0 -3.8988037 -1.7455521 -3.8988037 -3.8988z" fill-rule="nonzero"></path><path stroke="#000000" stroke-width="2.0" stroke-linejoin="round" stroke-linecap="butt" d="m426.4875 21.69352l0 0c0 -2.1532478 1.745575 -3.8988 3.8988037 -3.8988l0 0c1.0340271 0 2.0256958 0.4107647 2.7568665 1.1419315c0.73117065 0.73116684 1.1419373 1.7228432 1.1419373 2.7568684l0 0c0 2.1532478 -1.7455444 3.8988 -3.8988037 3.8988l0 0c-2.1532288 0 -3.8988037 -1.7455521 -3.8988037 -3.8988z" fill-rule="nonzero"></path><path fill="#000000" fill-opacity="0.0" d="m415.33057 26.407623l18.954407 0l-16.013184 16.011932l-4.287689 -15.999266z" fill-rule="nonzero"></path><path stroke="#000000" stroke-width="2.0" stroke-linejoin="round" stroke-linecap="butt" d="m415.33057 26.407623l18.954407 0l-16.013184 16.011932l-4.287689 -15.999266z" fill-rule="nonzero"></path><path fill="#000000" fill-opacity="0.0" d="m413.2861 16.590551l22.141724 0" fill-rule="nonzero"></path><path stroke="#000000" stroke-width="2.0" stroke-linejoin="round" stroke-linecap="butt" d="m413.2861 16.590551l22.141724 0" fill-rule="nonzero"></path><path fill="#000000" fill-opacity="0.0" d="m414.14435 16.590551l6.015747 -7.5275593" fill-rule="nonzero"></path><path stroke="#000000" stroke-width="2.0" stroke-linejoin="round" stroke-linecap="butt" d="m414.14435 16.590551l6.015747 -7.5275593" fill-rule="nonzero"></path><path fill="#000000" fill-opacity="0.0" d="m433.37402 16.45407l6.015747 -7.52756" fill-rule="nonzero"></path><path stroke="#000000" stroke-width="2.0" stroke-linejoin="round" stroke-linecap="butt" d="m433.37402 16.45407l6.015747 -7.52756" fill-rule="nonzero"></path><path fill="#000000" fill-opacity="0.0" d="m423.75854 16.590551l6.015747 -7.5275593" fill-rule="nonzero"></path><path stroke="#000000" stroke-width="2.0" stroke-linejoin="round" stroke-linecap="butt" d="m423.75854 16.590551l6.015747 -7.5275593" fill-rule="nonzero"></path><path fill="#000000" fill-opacity="0.0" d="m428.74933 16.590551l6.0157776 -7.5275593" fill-rule="nonzero"></path><path stroke="#000000" stroke-width="2.0" stroke-linejoin="round" stroke-linecap="butt" d="m428.74933 16.590551l6.0157776 -7.5275593" fill-rule="nonzero"></path><path fill="#000000" fill-opacity="0.0" d="m419.0643 16.590551l6.015747 -7.5275593" fill-rule="nonzero"></path><path stroke="#000000" stroke-width="2.0" stroke-linejoin="round" stroke-linecap="butt" d="m419.0643 16.590551l6.015747 -7.5275593" fill-rule="nonzero"></path><path fill="#000000" fill-opacity="0.0" d="m278.50015 20.352312l0 0c0 -2.1532478 1.7455444 -3.8988 3.8988037 -3.8988l0 0c1.0340271 0 2.0256958 0.4107647 2.7568665 1.1419315c0.73114014 0.73116684 1.1419067 1.7228432 1.1419067 2.7568684l0 0c0 2.1532478 -1.7455444 3.8988 -3.8987732 3.8988l0 0c-2.1532593 0 -3.8988037 -1.7455521 -3.8988037 -3.8988z" fill-rule="nonzero"></path><path stroke="#000000" stroke-width="2.0" stroke-linejoin="round" stroke-linecap="butt" d="m278.50015 20.352312l0 0c0 -2.1532478 1.7455444 -3.8988 3.8988037 -3.8988l0 0c1.0340271 0 2.0256958 0.4107647 2.7568665 1.1419315c0.73114014 0.73116684 1.1419067 1.7228432 1.1419067 2.7568684l0 0c0 2.1532478 -1.7455444 3.8988 -3.8987732 3.8988l0 0c-2.1532593 0 -3.8988037 -1.7455521 -3.8988037 -3.8988z" fill-rule="nonzero"></path><path fill="#000000" fill-opacity="0.0" d="m291.00455 20.352312l0 0c0 -2.1532478 1.745575 -3.8988 3.8988037 -3.8988l0 0c1.0340271 0 2.0256958 0.4107647 2.7568665 1.1419315c0.73117065 0.73116684 1.1419373 1.7228432 1.1419373 2.7568684l0 0c0 2.1532478 -1.7455444 3.8988 -3.8988037 3.8988l0 0c-2.1532288 0 -3.8988037 -1.7455521 -3.8988037 -3.8988z" fill-rule="nonzero"></path><path stroke="#000000" stroke-width="2.0" stroke-linejoin="round" stroke-linecap="butt" d="m291.00455 20.352312l0 0c0 -2.1532478 1.745575 -3.8988 3.8988037 -3.8988l0 0c1.0340271 0 2.0256958 0.4107647 2.7568665 1.1419315c0.73117065 0.73116684 1.1419373 1.7228432 1.1419373 2.7568684l0 0c0 2.1532478 -1.7455444 3.8988 -3.8988037 3.8988l0 0c-2.1532288 0 -3.8988037 -1.7455521 -3.8988037 -3.8988z" fill-rule="nonzero"></path><path fill="#000000" fill-opacity="0.0" d="m279.84763 25.066416l18.954407 0l-16.013184 16.011934l-4.287689 -15.999268z" fill-rule="nonzero"></path><path stroke="#000000" stroke-width="2.0" stroke-linejoin="round" stroke-linecap="butt" d="m279.84763 25.066416l18.954407 0l-16.013184 16.011934l-4.287689 -15.999268z" fill-rule="nonzero"></path><path fill="#000000" fill-opacity="0.0" d="m277.80316 15.249344l22.141724 0" fill-rule="nonzero"></path><path stroke="#000000" stroke-width="2.0" stroke-linejoin="round" stroke-linecap="butt" d="m277.80316 15.249344l22.141724 0" fill-rule="nonzero"></path><path fill="#000000" fill-opacity="0.0" d="m278.6614 15.249344l6.015747 -7.5275593" fill-rule="nonzero"></path><path stroke="#000000" stroke-width="2.0" stroke-linejoin="round" stroke-linecap="butt" d="m278.6614 15.249344l6.015747 -7.5275593" fill-rule="nonzero"></path><path fill="#000000" fill-opacity="0.0" d="m297.89108 15.112861l6.015747 -7.527559" fill-rule="nonzero"></path><path stroke="#000000" stroke-width="2.0" stroke-linejoin="round" stroke-linecap="butt" d="m297.89108 15.112861l6.015747 -7.527559" fill-rule="nonzero"></path><path fill="#000000" fill-opacity="0.0" d="m288.2756 15.249344l6.015747 -7.5275593" fill-rule="nonzero"></path><path stroke="#000000" stroke-width="2.0" stroke-linejoin="round" stroke-linecap="butt" d="m288.2756 15.249344l6.015747 -7.5275593" fill-rule="nonzero"></path><path fill="#000000" fill-opacity="0.0" d="m293.26642 15.249344l6.015747 -7.5275593" fill-rule="nonzero"></path><path stroke="#000000" stroke-width="2.0" stroke-linejoin="round" stroke-linecap="butt" d="m293.26642 15.249344l6.015747 -7.5275593" fill-rule="nonzero"></path><path fill="#000000" fill-opacity="0.0" d="m283.58136 15.249344l6.015747 -7.5275593" fill-rule="nonzero"></path><path stroke="#000000" stroke-width="2.0" stroke-linejoin="round" stroke-linecap="butt" d="m283.58136 15.249344l6.015747 -7.5275593" fill-rule="nonzero"></path><path fill="#000000" fill-opacity="0.0" d="m120.67205 29.423529l0 0c-1.5225601 -1.522562 -3.9855347 -1.5281467 -5.5012054 -0.012475967l0 0c-0.72785187 0.72784996 -1.135437 1.7163429 -1.1331024 2.7480202c0.0023422241 1.0316772 0.41442108 2.022026 1.1455765 2.7531853l0 0c1.5225677 1.5225639 3.9855347 1.5281487 5.501213 0.012477875l0 0c1.5156708 -1.5156708 1.5100784 -3.9786453 -0.012481689 -5.5012074z" fill-rule="nonzero"></path><path stroke="#000000" stroke-width="2.0" stroke-linejoin="round" stroke-linecap="butt" d="m120.67205 29.423529l0 0c-1.5225601 -1.522562 -3.9855347 -1.5281467 -5.5012054 -0.012475967l0 0c-0.72785187 0.72784996 -1.135437 1.7163429 -1.1331024 2.7480202c0.0023422241 1.0316772 0.41442108 2.022026 1.1455765 2.7531853l0 0c1.5225677 1.5225639 3.9855347 1.5281487 5.501213 0.012477875l0 0c1.5156708 -1.5156708 1.5100784 -3.9786453 -0.012481689 -5.5012074z" fill-rule="nonzero"></path><path fill="#000000" fill-opacity="0.0" d="m111.87019 38.225388l0 0c-1.5225601 -1.5225639 -3.9855347 -1.5281487 -5.5012054 -0.012477875l0 0c-0.72785187 0.72785187 -1.135437 1.7163429 -1.1331024 2.7480202c0.0023422241 1.0316772 0.41442108 2.022026 1.1455765 2.753189l0 0c1.5225601 1.5225601 3.9855347 1.5281448 5.5012054 0.01247406l0 0c1.5156708 -1.5156708 1.510086 -3.9786453 -0.01247406 -5.5012054z" fill-rule="nonzero"></path><path stroke="#000000" stroke-width="2.0" stroke-linejoin="round" stroke-linecap="butt" d="m111.87019 38.225388l0 0c-1.5225601 -1.5225639 -3.9855347 -1.5281487 -5.5012054 -0.012477875l0 0c-0.72785187 0.72785187 -1.135437 1.7163429 -1.1331024 2.7480202c0.0023422241 1.0316772 0.41442108 2.022026 1.1455765 2.753189l0 0c1.5225601 1.5225601 3.9855347 1.5281448 5.5012054 0.01247406l0 0c1.5156708 -1.5156708 1.510086 -3.9786453 -0.01247406 -5.5012054z" fill-rule="nonzero"></path><path fill="#000000" fill-opacity="0.0" d="m123.05688 33.705387l-13.342003 13.341999l22.593735 0.050346375l-8.294998 -14.331169z" fill-rule="nonzero"></path><path stroke="#000000" stroke-width="2.0" stroke-linejoin="round" stroke-linecap="butt" d="m123.05688 33.705387l-13.342003 13.341999l22.593735 0.050346375l-8.294998 -14.331169z" fill-rule="nonzero"></path><path fill="#000000" fill-opacity="0.0" d="m102.10577 41.258717l14.868172 -14.865961" fill-rule="nonzero"></path><path stroke="#000000" stroke-width="2.0" stroke-linejoin="round" stroke-linecap="butt" d="m102.10577 41.258717l14.868172 -14.865961" fill-rule="nonzero"></path><path fill="#000000" fill-opacity="0.0" d="m102.68208 40.682476l-1.2839127 -9.36171" fill-rule="nonzero"></path><path stroke="#000000" stroke-width="2.0" stroke-linejoin="round" stroke-linecap="butt" d="m102.68208 40.682476l-1.2839127 -9.36171" fill-rule="nonzero"></path><path fill="#000000" fill-opacity="0.0" d="m115.498276 27.675177l-1.2839127 -9.36171" fill-rule="nonzero"></path><path stroke="#000000" stroke-width="2.0" stroke-linejoin="round" stroke-linecap="butt" d="m115.498276 27.675177l-1.2839127 -9.36171" fill-rule="nonzero"></path><path fill="#000000" fill-opacity="0.0" d="m109.138 34.227528l-1.2839127 -9.3617115" fill-rule="nonzero"></path><path stroke="#000000" stroke-width="2.0" stroke-linejoin="round" stroke-linecap="butt" d="m109.138 34.227528l-1.2839127 -9.3617115" fill-rule="nonzero"></path><path fill="#000000" fill-opacity="0.0" d="m112.489334 30.876701l-1.2839127 -9.36171" fill-rule="nonzero"></path><path stroke="#000000" stroke-width="2.0" stroke-linejoin="round" stroke-linecap="butt" d="m112.489334 30.876701l-1.2839127 -9.36171" fill-rule="nonzero"></path><path fill="#000000" fill-opacity="0.0" d="m105.98583 37.379223l-1.2839127 -9.36171" fill-rule="nonzero"></path><path stroke="#000000" stroke-width="2.0" stroke-linejoin="round" stroke-linecap="butt" d="m105.98583 37.379223l-1.2839127 -9.36171" fill-rule="nonzero"></path><path fill="#000000" fill-opacity="0.0" d="m39.589752 112.61682l0 0c-1.5220451 -1.522049 -3.9827156 -1.5290985 -5.496063 -0.01574707l0 0c-0.72673416 0.72673035 -1.1333504 1.7140579 -1.1303978 2.7447662c0.0029525757 1.0307083 0.4152336 2.020378 1.1461449 2.7512894l0 0c1.5220451 1.522049 3.9827156 1.5290985 5.496063 0.0157547l0 0c1.5133476 -1.5133514 1.5062981 -3.974022 -0.01574707 -5.496063z" fill-rule="nonzero"></path><path stroke="#000000" stroke-width="2.0" stroke-linejoin="round" stroke-linecap="butt" d="m39.589752 112.61682l0 0c-1.5220451 -1.522049 -3.9827156 -1.5290985 -5.496063 -0.01574707l0 0c-0.72673416 0.72673035 -1.1333504 1.7140579 -1.1303978 2.7447662c0.0029525757 1.0307083 0.4152336 2.020378 1.1461449 2.7512894l0 0c1.5220451 1.522049 3.9827156 1.5290985 5.496063 0.0157547l0 0c1.5133476 -1.5133514 1.5062981 -3.974022 -0.01574707 -5.496063z" fill-rule="nonzero"></path><path fill="#000000" fill-opacity="0.0" d="m30.787893 121.41868l0 0c-1.5220432 -1.522049 -3.9827156 -1.5290985 -5.496063 -0.01574707l0 0c-0.72673416 0.72673035 -1.1333504 1.7140579 -1.1303978 2.7447662c0.002954483 1.030716 0.41523552 2.0203857 1.1461468 2.751297l0 0c1.5220451 1.5220413 3.9827156 1.5290909 5.496063 0.01574707l0 0c1.5133476 -1.5133514 1.5062943 -3.974022 -0.015748978 -5.496063z" fill-rule="nonzero"></path><path stroke="#000000" stroke-width="2.0" stroke-linejoin="round" stroke-linecap="butt" d="m30.787893 121.41868l0 0c-1.5220432 -1.522049 -3.9827156 -1.5290985 -5.496063 -0.01574707l0 0c-0.72673416 0.72673035 -1.1333504 1.7140579 -1.1303978 2.7447662c0.002954483 1.030716 0.41523552 2.0203857 1.1461468 2.751297l0 0c1.5220451 1.5220413 3.9827156 1.5290909 5.496063 0.01574707l0 0c1.5133476 -1.5133514 1.5062943 -3.974022 -0.015748978 -5.496063z" fill-rule="nonzero"></path><path fill="#000000" fill-opacity="0.0" d="m41.975517 116.899605l-13.341919 13.341927l22.592117 0.0488739l-8.293472 -14.32962z" fill-rule="nonzero"></path><path stroke="#000000" stroke-width="2.0" stroke-linejoin="round" stroke-linecap="butt" d="m41.975517 116.899605l-13.341919 13.341927l22.592117 0.0488739l-8.293472 -14.32962z" fill-rule="nonzero"></path><path fill="#000000" fill-opacity="0.0" d="m21.0244 124.45294l14.866144 -14.866142" fill-rule="nonzero"></path><path stroke="#000000" stroke-width="2.0" stroke-linejoin="round" stroke-linecap="butt" d="m21.0244 124.45294l14.866144 -14.866142" fill-rule="nonzero"></path><path fill="#000000" fill-opacity="0.0" d="m21.600721 123.8767l-1.291338 -9.354332" fill-rule="nonzero"></path><path stroke="#000000" stroke-width="2.0" stroke-linejoin="round" stroke-linecap="butt" d="m21.600721 123.8767l-1.291338 -9.354332" fill-rule="nonzero"></path><path fill="#000000" fill-opacity="0.0" d="m34.416912 110.8694l-1.291336 -9.354332" fill-rule="nonzero"></path><path stroke="#000000" stroke-width="2.0" stroke-linejoin="round" stroke-linecap="butt" d="m34.416912 110.8694l-1.291336 -9.354332" fill-rule="nonzero"></path><path fill="#000000" fill-opacity="0.0" d="m28.056635 117.42175l-1.291338 -9.354332" fill-rule="nonzero"></path><path stroke="#000000" stroke-width="2.0" stroke-linejoin="round" stroke-linecap="butt" d="m28.056635 117.42175l-1.291338 -9.354332" fill-rule="nonzero"></path><path fill="#000000" fill-opacity="0.0" d="m31.407972 114.07093l-1.291338 -9.354332" fill-rule="nonzero"></path><path stroke="#000000" stroke-width="2.0" stroke-linejoin="round" stroke-linecap="butt" d="m31.407972 114.07093l-1.291338 -9.354332" fill-rule="nonzero"></path><path fill="#000000" fill-opacity="0.0" d="m24.904467 120.57345l-1.2913399 -9.354332" fill-rule="nonzero"></path><path stroke="#000000" stroke-width="2.0" stroke-linejoin="round" stroke-linecap="butt" d="m24.904467 120.57345l-1.2913399 -9.354332" fill-rule="nonzero"></path><path fill="#000000" fill-opacity="0.0" d="m81.55957 69.47246l0 0c-1.522049 -1.5220413 -3.9827194 -1.5290909 -5.496063 -0.01574707l0 0c-0.726738 0.726738 -1.1333542 1.7140579 -1.1304016 2.7447739c0.0029525757 1.0307083 0.41523743 2.020378 1.1461487 2.7512894l0 0c1.5220413 1.522049 3.9827118 1.5290985 5.496063 0.01574707l0 0c1.5133438 -1.5133438 1.5062943 -3.9740143 -0.01574707 -5.496063z" fill-rule="nonzero"></path><path stroke="#000000" stroke-width="2.0" stroke-linejoin="round" stroke-linecap="butt" d="m81.55957 69.47246l0 0c-1.522049 -1.5220413 -3.9827194 -1.5290909 -5.496063 -0.01574707l0 0c-0.726738 0.726738 -1.1333542 1.7140579 -1.1304016 2.7447739c0.0029525757 1.0307083 0.41523743 2.020378 1.1461487 2.7512894l0 0c1.5220413 1.522049 3.9827118 1.5290985 5.496063 0.01574707l0 0c1.5133438 -1.5133438 1.5062943 -3.9740143 -0.01574707 -5.496063z" fill-rule="nonzero"></path><path fill="#000000" fill-opacity="0.0" d="m72.75771 78.27432l0 0c-1.522049 -1.522049 -3.9827194 -1.5290985 -5.496063 -0.0157547l0 0c-0.726738 0.726738 -1.1333542 1.7140579 -1.1304016 2.7447739c0.0029525757 1.0307083 0.41523743 2.020378 1.1461487 2.7512894l0 0c1.5220413 1.522049 3.9827118 1.5290985 5.496063 0.0157547l0 0c1.5133438 -1.5133514 1.5062943 -3.974022 -0.01574707 -5.496063z" fill-rule="nonzero"></path><path stroke="#000000" stroke-width="2.0" stroke-linejoin="round" stroke-linecap="butt" d="m72.75771 78.27432l0 0c-1.522049 -1.522049 -3.9827194 -1.5290985 -5.496063 -0.0157547l0 0c-0.726738 0.726738 -1.1333542 1.7140579 -1.1304016 2.7447739c0.0029525757 1.0307083 0.41523743 2.020378 1.1461487 2.7512894l0 0c1.5220413 1.522049 3.9827118 1.5290985 5.496063 0.0157547l0 0c1.5133438 -1.5133514 1.5062943 -3.974022 -0.01574707 -5.496063z" fill-rule="nonzero"></path><path fill="#000000" fill-opacity="0.0" d="m83.945335 73.75525l-13.341919 13.341919l22.592117 0.0488739l-8.293472 -14.329613z" fill-rule="nonzero"></path><path stroke="#000000" stroke-width="2.0" stroke-linejoin="round" stroke-linecap="butt" d="m83.945335 73.75525l-13.341919 13.341919l22.592117 0.0488739l-8.293472 -14.329613z" fill-rule="nonzero"></path><path fill="#000000" fill-opacity="0.0" d="m62.994217 81.308586l14.866142 -14.866142" fill-rule="nonzero"></path><path stroke="#000000" stroke-width="2.0" stroke-linejoin="round" stroke-linecap="butt" d="m62.994217 81.308586l14.866142 -14.866142" fill-rule="nonzero"></path><path fill="#000000" fill-opacity="0.0" d="m63.570538 80.732346l-1.291336 -9.354332" fill-rule="nonzero"></path><path stroke="#000000" stroke-width="2.0" stroke-linejoin="round" stroke-linecap="butt" d="m63.570538 80.732346l-1.291336 -9.354332" fill-rule="nonzero"></path><path fill="#000000" fill-opacity="0.0" d="m76.38673 67.725044l-1.291336 -9.354328" fill-rule="nonzero"></path><path stroke="#000000" stroke-width="2.0" stroke-linejoin="round" stroke-linecap="butt" d="m76.38673 67.725044l-1.291336 -9.354328" fill-rule="nonzero"></path><path fill="#000000" fill-opacity="0.0" d="m70.02645 74.2774l-1.291336 -9.354332" fill-rule="nonzero"></path><path stroke="#000000" stroke-width="2.0" stroke-linejoin="round" stroke-linecap="butt" d="m70.02645 74.2774l-1.291336 -9.354332" fill-rule="nonzero"></path><path fill="#000000" fill-opacity="0.0" d="m73.37779 70.92657l-1.2913437 -9.354328" fill-rule="nonzero"></path><path stroke="#000000" stroke-width="2.0" stroke-linejoin="round" stroke-linecap="butt" d="m73.37779 70.92657l-1.2913437 -9.354328" fill-rule="nonzero"></path><path fill="#000000" fill-opacity="0.0" d="m66.87428 77.42909l-1.291336 -9.354332" fill-rule="nonzero"></path><path stroke="#000000" stroke-width="2.0" stroke-linejoin="round" stroke-linecap="butt" d="m66.87428 77.42909l-1.291336 -9.354332" fill-rule="nonzero"></path><path fill="#000000" fill-opacity="0.0" d="m15.430125 165.28844l4.6492414 -3.898178l-1.6030998 -9.112442l8.166193 9.7395935l-2.5255623 -14.355057l8.235832 9.822647l-2.598589 -14.769241l8.344156 9.9518585l-2.5885506 -14.713226l8.060963 9.61409l-1.4457474 -8.21814l4.248272 -3.561966" fill-rule="nonzero"></path><path stroke="#000000" stroke-width="2.0" stroke-linejoin="round" stroke-linecap="butt" d="m15.430125 165.28844l4.6492414 -3.898178l-1.6030998 -9.112442l8.166193 9.7395935l-2.5255623 -14.355057l8.235832 9.822647l-2.598589 -14.769241l8.344156 9.9518585l-2.5885506 -14.713226l8.060963 9.61409l-1.4457474 -8.21814l4.248272 -3.561966" fill-rule="nonzero"></path><path fill="#000000" fill-opacity="0.0" d="m143.01851 303.91663l0 0c0 -2.1532593 1.7455597 -3.8988037 3.8988037 -3.8988037l0 0c1.0340271 0 2.025711 0.4107666 2.7568665 1.1419373c0.73117065 0.73117065 1.1419373 1.7228394 1.1419373 2.7568665l0 0c0 2.1532288 -1.7455597 3.8988037 -3.8988037 3.8988037l0 0c-2.153244 0 -3.8988037 -1.745575 -3.8988037 -3.8988037z" fill-rule="nonzero"></path><path stroke="#000000" stroke-width="1.0" stroke-linejoin="round" stroke-linecap="butt" stroke-dasharray="4.0,3.0" d="m143.01851 303.91663l0 0c0 -2.1532593 1.7455597 -3.8988037 3.8988037 -3.8988037l0 0c1.0340271 0 2.025711 0.4107666 2.7568665 1.1419373c0.73117065 0.73117065 1.1419373 1.7228394 1.1419373 2.7568665l0 0c0 2.1532288 -1.7455597 3.8988037 -3.8988037 3.8988037l0 0c-2.153244 0 -3.8988037 -1.745575 -3.8988037 -3.8988037z" fill-rule="nonzero"></path><path fill="#000000" fill-opacity="0.0" d="m155.52293 303.91663l0 0c0 -2.1532593 1.7455444 -3.8988037 3.8987885 -3.8988037l0 0c1.0340271 0 2.025711 0.4107666 2.7568817 1.1419373c0.7311554 0.73117065 1.141922 1.7228394 1.141922 2.7568665l0 0c0 2.1532288 -1.7455444 3.8988037 -3.8988037 3.8988037l0 0c-2.153244 0 -3.8987885 -1.745575 -3.8987885 -3.8988037z" fill-rule="nonzero"></path><path stroke="#000000" stroke-width="1.0" stroke-linejoin="round" stroke-linecap="butt" stroke-dasharray="4.0,3.0" d="m155.52293 303.91663l0 0c0 -2.1532593 1.7455444 -3.8988037 3.8987885 -3.8988037l0 0c1.0340271 0 2.025711 0.4107666 2.7568817 1.1419373c0.7311554 0.73117065 1.141922 1.7228394 1.141922 2.7568665l0 0c0 2.1532288 -1.7455444 3.8988037 -3.8988037 3.8988037l0 0c-2.153244 0 -3.8987885 -1.745575 -3.8987885 -3.8988037z" fill-rule="nonzero"></path><path fill="#000000" fill-opacity="0.0" d="m144.36601 308.6307l18.954391 0l-16.013199 16.011932l-4.2876587 -15.999268z" fill-rule="nonzero"></path><path stroke="#000000" stroke-width="1.0" stroke-linejoin="round" stroke-linecap="butt" stroke-dasharray="4.0,3.0" d="m144.36601 308.6307l18.954391 0l-16.013199 16.011932l-4.2876587 -15.999268z" fill-rule="nonzero"></path><path fill="#000000" fill-opacity="0.0" d="m142.32152 298.81366l22.141739 0" fill-rule="nonzero"></path><path stroke="#000000" stroke-width="1.0" stroke-linejoin="round" stroke-linecap="butt" stroke-dasharray="4.0,3.0" d="m142.32152 298.81366l22.141739 0" fill-rule="nonzero"></path><path fill="#000000" fill-opacity="0.0" d="m143.1798 298.81366l6.015747 -7.5275574" fill-rule="nonzero"></path><path stroke="#000000" stroke-width="1.0" stroke-linejoin="round" stroke-linecap="butt" stroke-dasharray="4.0,3.0" d="m143.1798 298.81366l6.015747 -7.5275574" fill-rule="nonzero"></path><path fill="#000000" fill-opacity="0.0" d="m162.40945 298.67715l6.015747 -7.5275574" fill-rule="nonzero"></path><path stroke="#000000" stroke-width="1.0" stroke-linejoin="round" stroke-linecap="butt" stroke-dasharray="4.0,3.0" d="m162.40945 298.67715l6.015747 -7.5275574" fill-rule="nonzero"></path><path fill="#000000" fill-opacity="0.0" d="m152.79396 298.81366l6.015747 -7.5275574" fill-rule="nonzero"></path><path stroke="#000000" stroke-width="1.0" stroke-linejoin="round" stroke-linecap="butt" stroke-dasharray="4.0,3.0" d="m152.79396 298.81366l6.015747 -7.5275574" fill-rule="nonzero"></path><path fill="#000000" fill-opacity="0.0" d="m157.78477 298.81366l6.015747 -7.5275574" fill-rule="nonzero"></path><path stroke="#000000" stroke-width="1.0" stroke-linejoin="round" stroke-linecap="butt" stroke-dasharray="4.0,3.0" d="m157.78477 298.81366l6.015747 -7.5275574" fill-rule="nonzero"></path><path fill="#000000" fill-opacity="0.0" d="m148.09973 298.81366l6.015747 -7.5275574" fill-rule="nonzero"></path><path stroke="#000000" stroke-width="1.0" stroke-linejoin="round" stroke-linecap="butt" stroke-dasharray="4.0,3.0" d="m148.09973 298.81366l6.015747 -7.5275574" fill-rule="nonzero"></path><path fill="#000000" fill-opacity="0.0" d="m413.9844 305.2578l0 0c0 -2.1532288 1.7455444 -3.8987732 3.8988037 -3.8987732l0 0c1.0339966 0 2.0256958 0.41073608 2.7568665 1.1419067c0.73114014 0.73117065 1.1419067 1.7228394 1.1419067 2.7568665l0 0c0 2.1532593 -1.7455444 3.8988037 -3.8987732 3.8988037l0 0c-2.1532593 0 -3.8988037 -1.7455444 -3.8988037 -3.8988037z" fill-rule="nonzero"></path><path stroke="#000000" stroke-width="1.0" stroke-linejoin="round" stroke-linecap="butt" stroke-dasharray="4.0,3.0" d="m413.9844 305.2578l0 0c0 -2.1532288 1.7455444 -3.8987732 3.8988037 -3.8987732l0 0c1.0339966 0 2.0256958 0.41073608 2.7568665 1.1419067c0.73114014 0.73117065 1.1419067 1.7228394 1.1419067 2.7568665l0 0c0 2.1532593 -1.7455444 3.8988037 -3.8987732 3.8988037l0 0c-2.1532593 0 -3.8988037 -1.7455444 -3.8988037 -3.8988037z" fill-rule="nonzero"></path><path fill="#000000" fill-opacity="0.0" d="m426.4888 305.2578l0 0c0 -2.1532288 1.745575 -3.8987732 3.8988037 -3.8987732l0 0c1.0340271 0 2.0256958 0.41073608 2.7568665 1.1419067c0.73117065 0.73117065 1.1419373 1.7228394 1.1419373 2.7568665l0 0c0 2.1532593 -1.7455444 3.8988037 -3.8988037 3.8988037l0 0c-2.1532288 0 -3.8988037 -1.7455444 -3.8988037 -3.8988037z" fill-rule="nonzero"></path><path stroke="#000000" stroke-width="1.0" stroke-linejoin="round" stroke-linecap="butt" stroke-dasharray="4.0,3.0" d="m426.4888 305.2578l0 0c0 -2.1532288 1.745575 -3.8987732 3.8988037 -3.8987732l0 0c1.0340271 0 2.0256958 0.41073608 2.7568665 1.1419067c0.73117065 0.73117065 1.1419373 1.7228394 1.1419373 2.7568665l0 0c0 2.1532593 -1.7455444 3.8988037 -3.8988037 3.8988037l0 0c-2.1532288 0 -3.8988037 -1.7455444 -3.8988037 -3.8988037z" fill-rule="nonzero"></path><path fill="#000000" fill-opacity="0.0" d="m415.33188 309.97192l18.954407 0l-16.013184 16.011932l-4.287689 -15.999268z" fill-rule="nonzero"></path><path stroke="#000000" stroke-width="1.0" stroke-linejoin="round" stroke-linecap="butt" stroke-dasharray="4.0,3.0" d="m415.33188 309.97192l18.954407 0l-16.013184 16.011932l-4.287689 -15.999268z" fill-rule="nonzero"></path><path fill="#000000" fill-opacity="0.0" d="m413.2874 300.15485l22.141724 0" fill-rule="nonzero"></path><path stroke="#000000" stroke-width="1.0" stroke-linejoin="round" stroke-linecap="butt" stroke-dasharray="4.0,3.0" d="m413.2874 300.15485l22.141724 0" fill-rule="nonzero"></path><path fill="#000000" fill-opacity="0.0" d="m414.14566 300.15485l6.015747 -7.5275574" fill-rule="nonzero"></path><path stroke="#000000" stroke-width="1.0" stroke-linejoin="round" stroke-linecap="butt" stroke-dasharray="4.0,3.0" d="m414.14566 300.15485l6.015747 -7.5275574" fill-rule="nonzero"></path><path fill="#000000" fill-opacity="0.0" d="m433.37534 300.01837l6.015747 -7.5275574" fill-rule="nonzero"></path><path stroke="#000000" stroke-width="1.0" stroke-linejoin="round" stroke-linecap="butt" stroke-dasharray="4.0,3.0" d="m433.37534 300.01837l6.015747 -7.5275574" fill-rule="nonzero"></path><path fill="#000000" fill-opacity="0.0" d="m423.75986 300.15485l6.015747 -7.5275574" fill-rule="nonzero"></path><path stroke="#000000" stroke-width="1.0" stroke-linejoin="round" stroke-linecap="butt" stroke-dasharray="4.0,3.0" d="m423.75986 300.15485l6.015747 -7.5275574" fill-rule="nonzero"></path><path fill="#000000" fill-opacity="0.0" d="m428.75067 300.15485l6.015747 -7.5275574" fill-rule="nonzero"></path><path stroke="#000000" stroke-width="1.0" stroke-linejoin="round" stroke-linecap="butt" stroke-dasharray="4.0,3.0" d="m428.75067 300.15485l6.015747 -7.5275574" fill-rule="nonzero"></path><path fill="#000000" fill-opacity="0.0" d="m419.0656 300.15485l6.015747 -7.5275574" fill-rule="nonzero"></path><path stroke="#000000" stroke-width="1.0" stroke-linejoin="round" stroke-linecap="butt" stroke-dasharray="4.0,3.0" d="m419.0656 300.15485l6.015747 -7.5275574" fill-rule="nonzero"></path><path fill="#000000" fill-opacity="0.0" d="m278.50146 303.91663l0 0c0 -2.1532593 1.7455444 -3.8988037 3.8988037 -3.8988037l0 0c1.0340271 0 2.0256958 0.4107666 2.7568665 1.1419373c0.73114014 0.73117065 1.1419067 1.7228394 1.1419067 2.7568665l0 0c0 2.1532288 -1.7455444 3.8988037 -3.8987732 3.8988037l0 0c-2.1532593 0 -3.8988037 -1.745575 -3.8988037 -3.8988037z" fill-rule="nonzero"></path><path stroke="#000000" stroke-width="1.0" stroke-linejoin="round" stroke-linecap="butt" stroke-dasharray="4.0,3.0" d="m278.50146 303.91663l0 0c0 -2.1532593 1.7455444 -3.8988037 3.8988037 -3.8988037l0 0c1.0340271 0 2.0256958 0.4107666 2.7568665 1.1419373c0.73114014 0.73117065 1.1419067 1.7228394 1.1419067 2.7568665l0 0c0 2.1532288 -1.7455444 3.8988037 -3.8987732 3.8988037l0 0c-2.1532593 0 -3.8988037 -1.745575 -3.8988037 -3.8988037z" fill-rule="nonzero"></path><path fill="#000000" fill-opacity="0.0" d="m291.00586 303.91663l0 0c0 -2.1532593 1.745575 -3.8988037 3.8988037 -3.8988037l0 0c1.0340271 0 2.0256958 0.4107666 2.7568665 1.1419373c0.73117065 0.73117065 1.1419373 1.7228394 1.1419373 2.7568665l0 0c0 2.1532288 -1.7455444 3.8988037 -3.8988037 3.8988037l0 0c-2.1532288 0 -3.8988037 -1.745575 -3.8988037 -3.8988037z" fill-rule="nonzero"></path><path stroke="#000000" stroke-width="1.0" stroke-linejoin="round" stroke-linecap="butt" stroke-dasharray="4.0,3.0" d="m291.00586 303.91663l0 0c0 -2.1532593 1.745575 -3.8988037 3.8988037 -3.8988037l0 0c1.0340271 0 2.0256958 0.4107666 2.7568665 1.1419373c0.73117065 0.73117065 1.1419373 1.7228394 1.1419373 2.7568665l0 0c0 2.1532288 -1.7455444 3.8988037 -3.8988037 3.8988037l0 0c-2.1532288 0 -3.8988037 -1.745575 -3.8988037 -3.8988037z" fill-rule="nonzero"></path><path fill="#000000" fill-opacity="0.0" d="m279.84894 308.6307l18.954407 0l-16.013184 16.011932l-4.287689 -15.999268z" fill-rule="nonzero"></path><path stroke="#000000" stroke-width="1.0" stroke-linejoin="round" stroke-linecap="butt" stroke-dasharray="4.0,3.0" d="m279.84894 308.6307l18.954407 0l-16.013184 16.011932l-4.287689 -15.999268z" fill-rule="nonzero"></path><path fill="#000000" fill-opacity="0.0" d="m277.80447 298.81366l22.141724 0" fill-rule="nonzero"></path><path stroke="#000000" stroke-width="1.0" stroke-linejoin="round" stroke-linecap="butt" stroke-dasharray="4.0,3.0" d="m277.80447 298.81366l22.141724 0" fill-rule="nonzero"></path><path fill="#000000" fill-opacity="0.0" d="m278.66272 298.81366l6.015747 -7.5275574" fill-rule="nonzero"></path><path stroke="#000000" stroke-width="1.0" stroke-linejoin="round" stroke-linecap="butt" stroke-dasharray="4.0,3.0" d="m278.66272 298.81366l6.015747 -7.5275574" fill-rule="nonzero"></path><path fill="#000000" fill-opacity="0.0" d="m297.8924 298.67715l6.015747 -7.5275574" fill-rule="nonzero"></path><path stroke="#000000" stroke-width="1.0" stroke-linejoin="round" stroke-linecap="butt" stroke-dasharray="4.0,3.0" d="m297.8924 298.67715l6.015747 -7.5275574" fill-rule="nonzero"></path><path fill="#000000" fill-opacity="0.0" d="m288.27692 298.81366l6.015747 -7.5275574" fill-rule="nonzero"></path><path stroke="#000000" stroke-width="1.0" stroke-linejoin="round" stroke-linecap="butt" stroke-dasharray="4.0,3.0" d="m288.27692 298.81366l6.015747 -7.5275574" fill-rule="nonzero"></path><path fill="#000000" fill-opacity="0.0" d="m293.26773 298.81366l6.015747 -7.5275574" fill-rule="nonzero"></path><path stroke="#000000" stroke-width="1.0" stroke-linejoin="round" stroke-linecap="butt" stroke-dasharray="4.0,3.0" d="m293.26773 298.81366l6.015747 -7.5275574" fill-rule="nonzero"></path><path fill="#000000" fill-opacity="0.0" d="m283.58267 298.81366l6.015747 -7.5275574" fill-rule="nonzero"></path><path stroke="#000000" stroke-width="1.0" stroke-linejoin="round" stroke-linecap="butt" stroke-dasharray="4.0,3.0" d="m283.58267 298.81366l6.015747 -7.5275574" fill-rule="nonzero"></path><path fill="#000000" fill-opacity="0.0" d="m120.67243 312.9869l0 0c-1.522049 -1.5220642 -3.9827194 -1.5291138 -5.496063 -0.01574707l0 0c-0.726738 0.7267151 -1.1333542 1.7140503 -1.1304016 2.744751c0.0029525757 1.0307312 0.41523743 2.0203857 1.1461487 2.7513123l0 0c1.5220413 1.5220337 3.9827118 1.5290833 5.496063 0.01574707l0 0c1.5133438 -1.5133667 1.5062943 -3.9740295 -0.01574707 -5.496063z" fill-rule="nonzero"></path><path stroke="#000000" stroke-width="1.0" stroke-linejoin="round" stroke-linecap="butt" stroke-dasharray="4.0,3.0" d="m120.67243 312.9869l0 0c-1.522049 -1.5220642 -3.9827194 -1.5291138 -5.496063 -0.01574707l0 0c-0.726738 0.7267151 -1.1333542 1.7140503 -1.1304016 2.744751c0.0029525757 1.0307312 0.41523743 2.0203857 1.1461487 2.7513123l0 0c1.5220413 1.5220337 3.9827118 1.5290833 5.496063 0.01574707l0 0c1.5133438 -1.5133667 1.5062943 -3.9740295 -0.01574707 -5.496063z" fill-rule="nonzero"></path><path fill="#000000" fill-opacity="0.0" d="m111.87057 321.78876l0 0c-1.5220413 -1.5220337 -3.9827118 -1.5290833 -5.496063 -0.01574707l0 0c-0.72673035 0.7267456 -1.1333466 1.7140503 -1.130394 2.7447815c0.0029525757 1.0307007 0.41523743 2.0203552 1.1461487 2.7512817l0 0c1.5220413 1.5220337 3.9827118 1.5290833 5.496063 0.01574707l0 0c1.5133438 -1.5133362 1.5062943 -3.9740295 -0.0157547 -5.496063z" fill-rule="nonzero"></path><path stroke="#000000" stroke-width="1.0" stroke-linejoin="round" stroke-linecap="butt" stroke-dasharray="4.0,3.0" d="m111.87057 321.78876l0 0c-1.5220413 -1.5220337 -3.9827118 -1.5290833 -5.496063 -0.01574707l0 0c-0.72673035 0.7267456 -1.1333466 1.7140503 -1.130394 2.7447815c0.0029525757 1.0307007 0.41523743 2.0203552 1.1461487 2.7512817l0 0c1.5220413 1.5220337 3.9827118 1.5290833 5.496063 0.01574707l0 0c1.5133438 -1.5133362 1.5062943 -3.9740295 -0.0157547 -5.496063z" fill-rule="nonzero"></path><path fill="#000000" fill-opacity="0.0" d="m123.0582 317.26968l-13.341919 13.341919l22.592117 0.04888916l-8.293472 -14.32962z" fill-rule="nonzero"></path><path stroke="#000000" stroke-width="1.0" stroke-linejoin="round" stroke-linecap="butt" stroke-dasharray="4.0,3.0" d="m123.0582 317.26968l-13.341919 13.341919l22.592117 0.04888916l-8.293472 -14.32962z" fill-rule="nonzero"></path><path fill="#000000" fill-opacity="0.0" d="m102.10708 324.82303l14.866142 -14.86615" fill-rule="nonzero"></path><path stroke="#000000" stroke-width="1.0" stroke-linejoin="round" stroke-linecap="butt" stroke-dasharray="4.0,3.0" d="m102.10708 324.82303l14.866142 -14.86615" fill-rule="nonzero"></path><path fill="#000000" fill-opacity="0.0" d="m102.683395 324.2468l-1.291336 -9.35434" fill-rule="nonzero"></path><path stroke="#000000" stroke-width="1.0" stroke-linejoin="round" stroke-linecap="butt" stroke-dasharray="4.0,3.0" d="m102.683395 324.2468l-1.291336 -9.35434" fill-rule="nonzero"></path><path fill="#000000" fill-opacity="0.0" d="m115.49959 311.23947l-1.291336 -9.354309" fill-rule="nonzero"></path><path stroke="#000000" stroke-width="1.0" stroke-linejoin="round" stroke-linecap="butt" stroke-dasharray="4.0,3.0" d="m115.49959 311.23947l-1.291336 -9.354309" fill-rule="nonzero"></path><path fill="#000000" fill-opacity="0.0" d="m109.13931 317.79184l-1.291336 -9.35434" fill-rule="nonzero"></path><path stroke="#000000" stroke-width="1.0" stroke-linejoin="round" stroke-linecap="butt" stroke-dasharray="4.0,3.0" d="m109.13931 317.79184l-1.291336 -9.35434" fill-rule="nonzero"></path><path fill="#000000" fill-opacity="0.0" d="m112.49065 314.441l-1.291336 -9.35434" fill-rule="nonzero"></path><path stroke="#000000" stroke-width="1.0" stroke-linejoin="round" stroke-linecap="butt" stroke-dasharray="4.0,3.0" d="m112.49065 314.441l-1.291336 -9.35434" fill-rule="nonzero"></path><path fill="#000000" fill-opacity="0.0" d="m105.987144 320.94354l-1.291336 -9.35434" fill-rule="nonzero"></path><path stroke="#000000" stroke-width="1.0" stroke-linejoin="round" stroke-linecap="butt" stroke-dasharray="4.0,3.0" d="m105.987144 320.94354l-1.291336 -9.35434" fill-rule="nonzero"></path><path fill="#000000" fill-opacity="0.0" d="m39.591064 396.18112l0 0c-1.5220451 -1.5220337 -3.9827156 -1.5290833 -5.496063 -0.01574707l0 0c-0.72673416 0.7267456 -1.1333504 1.7140503 -1.1303978 2.7447815c0.0029525757 1.0307007 0.4152336 2.0203552 1.1461449 2.7512817l0 0c1.5220451 1.5220337 3.9827156 1.5290833 5.496063 0.01574707l0 0c1.5133476 -1.5133362 1.5062981 -3.9740295 -0.01574707 -5.496063z" fill-rule="nonzero"></path><path stroke="#000000" stroke-width="1.0" stroke-linejoin="round" stroke-linecap="butt" stroke-dasharray="4.0,3.0" d="m39.591064 396.18112l0 0c-1.5220451 -1.5220337 -3.9827156 -1.5290833 -5.496063 -0.01574707l0 0c-0.72673416 0.7267456 -1.1333504 1.7140503 -1.1303978 2.7447815c0.0029525757 1.0307007 0.4152336 2.0203552 1.1461449 2.7512817l0 0c1.5220451 1.5220337 3.9827156 1.5290833 5.496063 0.01574707l0 0c1.5133476 -1.5133362 1.5062981 -3.9740295 -0.01574707 -5.496063z" fill-rule="nonzero"></path><path fill="#000000" fill-opacity="0.0" d="m30.789206 404.98297l0 0c-1.5220432 -1.5220337 -3.9827156 -1.5290833 -5.496063 -0.01574707l0 0c-0.72673416 0.7267456 -1.1333504 1.7140808 -1.1303978 2.7447815c0.002954483 1.0307007 0.41523552 2.0203857 1.1461468 2.7512817l0 0c1.5220451 1.5220642 3.9827156 1.5291138 5.496063 0.01574707l0 0c1.5133476 -1.5133362 1.5062943 -3.973999 -0.015748978 -5.496063z" fill-rule="nonzero"></path><path stroke="#000000" stroke-width="1.0" stroke-linejoin="round" stroke-linecap="butt" stroke-dasharray="4.0,3.0" d="m30.789206 404.98297l0 0c-1.5220432 -1.5220337 -3.9827156 -1.5290833 -5.496063 -0.01574707l0 0c-0.72673416 0.7267456 -1.1333504 1.7140808 -1.1303978 2.7447815c0.002954483 1.0307007 0.41523552 2.0203857 1.1461468 2.7512817l0 0c1.5220451 1.5220642 3.9827156 1.5291138 5.496063 0.01574707l0 0c1.5133476 -1.5133362 1.5062943 -3.973999 -0.015748978 -5.496063z" fill-rule="nonzero"></path><path fill="#000000" fill-opacity="0.0" d="m41.97683 400.4639l-13.341917 13.341919l22.592115 0.04888916l-8.293468 -14.32962z" fill-rule="nonzero"></path><path stroke="#000000" stroke-width="1.0" stroke-linejoin="round" stroke-linecap="butt" stroke-dasharray="4.0,3.0" d="m41.97683 400.4639l-13.341917 13.341919l22.592115 0.04888916l-8.293468 -14.32962z" fill-rule="nonzero"></path><path fill="#000000" fill-opacity="0.0" d="m21.025713 408.01724l14.866144 -14.86615" fill-rule="nonzero"></path><path stroke="#000000" stroke-width="1.0" stroke-linejoin="round" stroke-linecap="butt" stroke-dasharray="4.0,3.0" d="m21.025713 408.01724l14.866144 -14.86615" fill-rule="nonzero"></path><path fill="#000000" fill-opacity="0.0" d="m21.602034 407.441l-1.291338 -9.35434" fill-rule="nonzero"></path><path stroke="#000000" stroke-width="1.0" stroke-linejoin="round" stroke-linecap="butt" stroke-dasharray="4.0,3.0" d="m21.602034 407.441l-1.291338 -9.35434" fill-rule="nonzero"></path><path fill="#000000" fill-opacity="0.0" d="m34.418224 394.43372l-1.291336 -9.35434" fill-rule="nonzero"></path><path stroke="#000000" stroke-width="1.0" stroke-linejoin="round" stroke-linecap="butt" stroke-dasharray="4.0,3.0" d="m34.418224 394.43372l-1.291336 -9.35434" fill-rule="nonzero"></path><path fill="#000000" fill-opacity="0.0" d="m28.057947 400.98605l-1.291338 -9.35434" fill-rule="nonzero"></path><path stroke="#000000" stroke-width="1.0" stroke-linejoin="round" stroke-linecap="butt" stroke-dasharray="4.0,3.0" d="m28.057947 400.98605l-1.291338 -9.35434" fill-rule="nonzero"></path><path fill="#000000" fill-opacity="0.0" d="m31.409285 397.63522l-1.291338 -9.354309" fill-rule="nonzero"></path><path stroke="#000000" stroke-width="1.0" stroke-linejoin="round" stroke-linecap="butt" stroke-dasharray="4.0,3.0" d="m31.409285 397.63522l-1.291338 -9.354309" fill-rule="nonzero"></path><path fill="#000000" fill-opacity="0.0" d="m24.905779 404.13776l-1.2913399 -9.35434" fill-rule="nonzero"></path><path stroke="#000000" stroke-width="1.0" stroke-linejoin="round" stroke-linecap="butt" stroke-dasharray="4.0,3.0" d="m24.905779 404.13776l-1.2913399 -9.35434" fill-rule="nonzero"></path><path fill="#000000" fill-opacity="0.0" d="m81.56088 353.03677l0 0c-1.522049 -1.5220642 -3.9827194 -1.5291138 -5.496063 -0.01574707l0 0c-0.726738 0.7267151 -1.1333542 1.7140503 -1.1304016 2.744751c0.0029525757 1.0307312 0.41523743 2.0203857 1.1461487 2.7513123l0 0c1.5220413 1.5220337 3.9827118 1.5290833 5.496063 0.01574707l0 0c1.5133438 -1.5133667 1.5062943 -3.9740295 -0.01574707 -5.496063z" fill-rule="nonzero"></path><path stroke="#000000" stroke-width="1.0" stroke-linejoin="round" stroke-linecap="butt" stroke-dasharray="4.0,3.0" d="m81.56088 353.03677l0 0c-1.522049 -1.5220642 -3.9827194 -1.5291138 -5.496063 -0.01574707l0 0c-0.726738 0.7267151 -1.1333542 1.7140503 -1.1304016 2.744751c0.0029525757 1.0307312 0.41523743 2.0203857 1.1461487 2.7513123l0 0c1.5220413 1.5220337 3.9827118 1.5290833 5.496063 0.01574707l0 0c1.5133438 -1.5133667 1.5062943 -3.9740295 -0.01574707 -5.496063z" fill-rule="nonzero"></path><path fill="#000000" fill-opacity="0.0" d="m72.759026 361.83862l0 0c-1.522049 -1.5220337 -3.9827194 -1.5290833 -5.496063 -0.01574707l0 0c-0.726738 0.7267456 -1.1333542 1.7140503 -1.1304016 2.7447815c0.0029525757 1.0307007 0.41523743 2.0203552 1.1461487 2.7512817l0 0c1.5220413 1.5220337 3.9827118 1.5290833 5.496063 0.01574707l0 0c1.5133438 -1.5133362 1.5062943 -3.9740295 -0.01574707 -5.496063z" fill-rule="nonzero"></path><path stroke="#000000" stroke-width="1.0" stroke-linejoin="round" stroke-linecap="butt" stroke-dasharray="4.0,3.0" d="m72.759026 361.83862l0 0c-1.522049 -1.5220337 -3.9827194 -1.5290833 -5.496063 -0.01574707l0 0c-0.726738 0.7267456 -1.1333542 1.7140503 -1.1304016 2.7447815c0.0029525757 1.0307007 0.41523743 2.0203552 1.1461487 2.7512817l0 0c1.5220413 1.5220337 3.9827118 1.5290833 5.496063 0.01574707l0 0c1.5133438 -1.5133362 1.5062943 -3.9740295 -0.01574707 -5.496063z" fill-rule="nonzero"></path><path fill="#000000" fill-opacity="0.0" d="m83.94665 357.31955l-13.341919 13.341919l22.592117 0.04888916l-8.293472 -14.32962z" fill-rule="nonzero"></path><path stroke="#000000" stroke-width="1.0" stroke-linejoin="round" stroke-linecap="butt" stroke-dasharray="4.0,3.0" d="m83.94665 357.31955l-13.341919 13.341919l22.592117 0.04888916l-8.293472 -14.32962z" fill-rule="nonzero"></path><path fill="#000000" fill-opacity="0.0" d="m62.99553 364.8729l14.866142 -14.86615" fill-rule="nonzero"></path><path stroke="#000000" stroke-width="1.0" stroke-linejoin="round" stroke-linecap="butt" stroke-dasharray="4.0,3.0" d="m62.99553 364.8729l14.866142 -14.86615" fill-rule="nonzero"></path><path fill="#000000" fill-opacity="0.0" d="m63.57185 364.29666l-1.291336 -9.35434" fill-rule="nonzero"></path><path stroke="#000000" stroke-width="1.0" stroke-linejoin="round" stroke-linecap="butt" stroke-dasharray="4.0,3.0" d="m63.57185 364.29666l-1.291336 -9.35434" fill-rule="nonzero"></path><path fill="#000000" fill-opacity="0.0" d="m76.38804 351.28934l-1.291336 -9.354309" fill-rule="nonzero"></path><path stroke="#000000" stroke-width="1.0" stroke-linejoin="round" stroke-linecap="butt" stroke-dasharray="4.0,3.0" d="m76.38804 351.28934l-1.291336 -9.354309" fill-rule="nonzero"></path><path fill="#000000" fill-opacity="0.0" d="m70.02776 357.8417l-1.291336 -9.35434" fill-rule="nonzero"></path><path stroke="#000000" stroke-width="1.0" stroke-linejoin="round" stroke-linecap="butt" stroke-dasharray="4.0,3.0" d="m70.02776 357.8417l-1.291336 -9.35434" fill-rule="nonzero"></path><path fill="#000000" fill-opacity="0.0" d="m73.379105 354.49088l-1.2913437 -9.35434" fill-rule="nonzero"></path><path stroke="#000000" stroke-width="1.0" stroke-linejoin="round" stroke-linecap="butt" stroke-dasharray="4.0,3.0" d="m73.379105 354.49088l-1.2913437 -9.35434" fill-rule="nonzero"></path><path fill="#000000" fill-opacity="0.0" d="m66.875595 360.9934l-1.291336 -9.35434" fill-rule="nonzero"></path><path stroke="#000000" stroke-width="1.0" stroke-linejoin="round" stroke-linecap="butt" stroke-dasharray="4.0,3.0" d="m66.875595 360.9934l-1.291336 -9.35434" fill-rule="nonzero"></path><path fill="#000000" fill-opacity="0.0" d="m468.4076 326.5194l0 0c6.4447937 6.4447937 7.620941 15.717682 2.6270142 20.711609l-22.42575 22.42575c-4.993927 4.993927 -3.8177795 14.266815 2.6269836 20.711578l0 0c-6.444763 -6.444763 -15.717682 -7.6209106 -20.711609 -2.6269836l-36.96408 36.96411c-4.993927 4.993927 -14.266846 3.8177795 -20.711609 -2.6269836z" fill-rule="nonzero"></path><path fill="#000000" fill-opacity="0.0" d="m468.4076 326.5194l0 0c6.4447937 6.4447937 7.620941 15.717682 2.6270142 20.711609l-22.42575 22.42575c-4.993927 4.993927 -3.8177795 14.266815 2.6269836 20.711578l0 0c-6.444763 -6.444763 -15.717682 -7.6209106 -20.711609 -2.6269836l-36.96408 36.96411c-4.993927 4.993927 -14.266846 3.8177795 -20.711609 -2.6269836" fill-rule="nonzero"></path><path stroke="#cc4125" stroke-width="2.0" stroke-linejoin="round" stroke-linecap="butt" d="m468.4076 326.5194l0 0c6.4447937 6.4447937 7.620941 15.717682 2.6270142 20.711609l-22.42575 22.42575c-4.993927 4.993927 -3.8177795 14.266815 2.6269836 20.711578l0 0c-6.444763 -6.444763 -15.717682 -7.6209106 -20.711609 -2.6269836l-36.96408 36.96411c-4.993927 4.993927 -14.266846 3.8177795 -20.711609 -2.6269836" fill-rule="nonzero"></path><path fill="#000000" fill-opacity="0.0" d="m443.59448 381.98163l29.039368 0l0 37.35434l-29.039368 0z" fill-rule="nonzero"></path><path fill="#cc4125" d="m454.95386 397.72974q0 -0.390625 0.015625 -0.734375q0.015625 -0.34375 0.046875 -0.640625l-1.375 0.09375l0 -0.84375l4.28125 0l0 0.625q-0.546875 0.015625 -0.8125 0.203125q-0.265625 0.171875 -0.375 0.484375q-0.109375 0.296875 -0.125 0.71875q0 0.421875 0 0.9375l0 3.109375l1.421875 0l2.375 -3.75q0.125 -0.1875 0.265625 -0.390625q0.15625 -0.21875 0.328125 -0.421875q0.171875 -0.21875 0.359375 -0.421875q0.203125 -0.203125 0.40625 -0.359375l-1.171875 0.03125l0 -0.765625l4.09375 0l0 0.625q-0.609375 0.046875 -1.109375 0.171875q-0.484375 0.109375 -0.9375 0.390625q-0.4375 0.265625 -0.875 0.75q-0.4375 0.46875 -0.921875 1.25l-1.859375 2.96875q0.265625 0.15625 0.484375 0.359375q0.21875 0.1875 0.390625 0.390625q0.1875 0.203125 0.359375 0.421875q0.171875 0.21875 0.34375 0.4375l2.125 2.828125q0.53125 0.734375 0.921875 1.140625q0.390625 0.40625 0.703125 0.625q0.328125 0.203125 0.59375 0.265625q0.265625 0.046875 0.578125 0.046875l0 0.625l-2.328125 0q-0.140625 0 -0.359375 -0.15625q-0.203125 -0.15625 -0.46875 -0.40625q-0.25 -0.265625 -0.53125 -0.59375q-0.28125 -0.34375 -0.5625 -0.703125l-2.265625 -3.078125q-0.359375 -0.46875 -0.734375 -0.890625q-0.359375 -0.4375 -0.703125 -0.640625l-0.921875 0.015625l0 4.1875q0 0.515625 -0.015625 0.890625q-0.015625 0.375 -0.046875 0.609375l1.375 -0.0625l0 0.828125l-4.28125 0l0 -0.625q0.546875 -0.03125 0.8125 -0.203125q0.265625 -0.171875 0.375 -0.46875q0.109375 -0.3125 0.109375 -0.734375q0.015625 -0.421875 0.015625 -0.921875l0 -8.21875z" fill-rule="nonzero"></path><path fill="#000000" fill-opacity="0.0" d="m468.4076 41.078484l0 0c6.4447937 6.444771 7.620941 15.717667 2.6270142 20.711594l-22.42575 22.42575c-4.993927 4.993927 -3.8177795 14.266823 2.6269836 20.711594l0 0c-6.444763 -6.444771 -15.717682 -7.6209183 -20.711609 -2.6269913l-36.96408 36.964096c-4.993927 4.993927 -14.266846 3.8177948 -20.711609 -2.6269836z" fill-rule="nonzero"></path><path fill="#000000" fill-opacity="0.0" d="m468.4076 41.078484l0 0c6.4447937 6.444771 7.620941 15.717667 2.6270142 20.711594l-22.42575 22.42575c-4.993927 4.993927 -3.8177795 14.266823 2.6269836 20.711594l0 0c-6.444763 -6.444771 -15.717682 -7.6209183 -20.711609 -2.6269913l-36.96408 36.964096c-4.993927 4.993927 -14.266846 3.8177948 -20.711609 -2.6269836" fill-rule="nonzero"></path><path stroke="#cc4125" stroke-width="2.0" stroke-linejoin="round" stroke-linecap="butt" d="m468.4076 41.078484l0 0c6.4447937 6.444771 7.620941 15.717667 2.6270142 20.711594l-22.42575 22.42575c-4.993927 4.993927 -3.8177795 14.266823 2.6269836 20.711594l0 0c-6.444763 -6.444771 -15.717682 -7.6209183 -20.711609 -2.6269913l-36.96408 36.964096c-4.993927 4.993927 -14.266846 3.8177948 -20.711609 -2.6269836" fill-rule="nonzero"></path><path fill="#000000" fill-opacity="0.0" d="m443.59448 96.54068l29.039368 0l0 37.35434l-29.039368 0z" fill-rule="nonzero"></path><path fill="#cc4125" d="m454.95386 112.2888q0 -0.390625 0.015625 -0.734375q0.015625 -0.34375 0.046875 -0.640625l-1.375 0.09375l0 -0.84375l4.28125 0l0 0.625q-0.546875 0.015625 -0.8125 0.203125q-0.265625 0.171875 -0.375 0.484375q-0.109375 0.296875 -0.125 0.71875q0 0.421875 0 0.9375l0 3.109375l1.421875 0l2.375 -3.75q0.125 -0.1875 0.265625 -0.390625q0.15625 -0.21875 0.328125 -0.421875q0.171875 -0.21875 0.359375 -0.421875q0.203125 -0.203125 0.40625 -0.359375l-1.171875 0.03125l0 -0.765625l4.09375 0l0 0.625q-0.609375 0.046875 -1.109375 0.171875q-0.484375 0.109375 -0.9375 0.390625q-0.4375 0.265625 -0.875 0.75q-0.4375 0.46875 -0.921875 1.25l-1.859375 2.96875q0.265625 0.15625 0.484375 0.359375q0.21875 0.1875 0.390625 0.390625q0.1875 0.203125 0.359375 0.421875q0.171875 0.21875 0.34375 0.4375l2.125 2.828125q0.53125 0.734375 0.921875 1.140625q0.390625 0.40625 0.703125 0.625q0.328125 0.203125 0.59375 0.265625q0.265625 0.046875 0.578125 0.046875l0 0.625l-2.328125 0q-0.140625 0 -0.359375 -0.15625q-0.203125 -0.15625 -0.46875 -0.40625q-0.25 -0.265625 -0.53125 -0.59375q-0.28125 -0.34375 -0.5625 -0.703125l-2.265625 -3.078125q-0.359375 -0.46875 -0.734375 -0.890625q-0.359375 -0.4375 -0.703125 -0.640625l-0.921875 0.015625l0 4.1875q0 0.515625 -0.015625 0.890625q-0.015625 0.375 -0.046875 0.609375l1.375 -0.0625l0 0.828125l-4.28125 0l0 -0.625q0.546875 -0.03125 0.8125 -0.203125q0.265625 -0.171875 0.375 -0.46875q0.109375 -0.3125 0.109375 -0.734375q0.015625 -0.421875 0.015625 -0.921875l0 -8.21875z" fill-rule="nonzero"></path><path fill="#000000" fill-opacity="0.0" d="m296.937 454.4147l0 0c0 9.114868 -5.725647 16.503937 -12.788574 16.503937l-110.379 0c-7.0629272 0 -12.788559 7.3890686 -12.788559 16.503937l0 0c0 -9.114868 -5.725647 -16.503937 -12.788574 -16.503937l-119.978546 0c-7.062931 0 -12.788569 -7.3890686 -12.788569 -16.503937z" fill-rule="nonzero"></path><path fill="#000000" fill-opacity="0.0" d="m296.937 454.4147l0 0c0 9.114868 -5.725647 16.503937 -12.788574 16.503937l-110.379 0c-7.0629272 0 -12.788559 7.3890686 -12.788559 16.503937l0 0c0 -9.114868 -5.725647 -16.503937 -12.788574 -16.503937l-119.978546 0c-7.062931 0 -12.788569 -7.3890686 -12.788569 -16.503937" fill-rule="nonzero"></path><path stroke="#cc4125" stroke-width="2.0" stroke-linejoin="round" stroke-linecap="butt" d="m296.937 454.4147l0 0c0 9.114868 -5.725647 16.503937 -12.788574 16.503937l-110.379 0c-7.0629272 0 -12.788559 7.3890686 -12.788559 16.503937l0 0c0 -9.114868 -5.725647 -16.503937 -12.788574 -16.503937l-119.978546 0c-7.062931 0 -12.788569 -7.3890686 -12.788569 -16.503937" fill-rule="nonzero"></path><path fill="#000000" fill-opacity="0.0" d="m144.98032 479.2651l29.039368 0l0 37.35434l-29.039368 0z" fill-rule="nonzero"></path><path fill="#cc4125" d="m156.33969 495.0132q0 -0.390625 0.015625 -0.734375q0.015625 -0.34375 0.046875 -0.640625l-1.375 0.09375l0 -0.84375l4.28125 0l0 0.625q-0.546875 0.015625 -0.8125 0.203125q-0.265625 0.171875 -0.375 0.484375q-0.109375 0.296875 -0.125 0.71875q0 0.421875 0 0.9375l0 3.109375l1.421875 0l2.375 -3.75q0.125 -0.1875 0.265625 -0.390625q0.15625 -0.21875 0.328125 -0.421875q0.171875 -0.21875 0.359375 -0.421875q0.203125 -0.203125 0.40625 -0.359375l-1.171875 0.03125l0 -0.765625l4.09375 0l0 0.625q-0.609375 0.046875 -1.109375 0.171875q-0.484375 0.109375 -0.9375 0.390625q-0.4375 0.265625 -0.875 0.75q-0.4375 0.46875 -0.921875 1.25l-1.859375 2.96875q0.265625 0.15625 0.484375 0.359375q0.21875 0.1875 0.390625 0.390625q0.1875 0.203125 0.359375 0.421875q0.171875 0.21875 0.34375 0.4375l2.125 2.828125q0.53125 0.734375 0.921875 1.140625q0.390625 0.40625 0.703125 0.625q0.328125 0.203125 0.59375 0.265625q0.265625 0.046875 0.578125 0.046875l0 0.625l-2.328125 0q-0.140625 0 -0.359375 -0.15625q-0.203125 -0.15625 -0.46875 -0.40625q-0.25 -0.265625 -0.53125 -0.59375q-0.28125 -0.34375 -0.5625 -0.703125l-2.265625 -3.078125q-0.359375 -0.46875 -0.734375 -0.890625q-0.359375 -0.4375 -0.703125 -0.640625l-0.921875 0.015625l0 4.1875q0 0.515625 -0.015625 0.890625q-0.015625 0.375 -0.046875 0.609375l1.375 -0.0625l0 0.828125l-4.28125 0l0 -0.625q0.546875 -0.03125 0.8125 -0.203125q0.265625 -0.171875 0.375 -0.46875q0.109375 -0.3125 0.109375 -0.734375q0.015625 -0.421875 0.015625 -0.921875l0 -8.21875z" fill-rule="nonzero"></path><path fill="#000000" fill-opacity="0.0" d="m296.937 169.04855l0 0c0 9.114868 -5.725647 16.503937 -12.788574 16.503937l-110.379 0c-7.0629272 0 -12.788559 7.3890686 -12.788559 16.503937l0 0c0 -9.114868 -5.725647 -16.503937 -12.788574 -16.503937l-119.978546 0c-7.062931 0 -12.788569 -7.3890686 -12.788569 -16.503937z" fill-rule="nonzero"></path><path fill="#000000" fill-opacity="0.0" d="m296.937 169.04855l0 0c0 9.114868 -5.725647 16.503937 -12.788574 16.503937l-110.379 0c-7.0629272 0 -12.788559 7.3890686 -12.788559 16.503937l0 0c0 -9.114868 -5.725647 -16.503937 -12.788574 -16.503937l-119.978546 0c-7.062931 0 -12.788569 -7.3890686 -12.788569 -16.503937" fill-rule="nonzero"></path><path stroke="#cc4125" stroke-width="2.0" stroke-linejoin="round" stroke-linecap="butt" d="m296.937 169.04855l0 0c0 9.114868 -5.725647 16.503937 -12.788574 16.503937l-110.379 0c-7.0629272 0 -12.788559 7.3890686 -12.788559 16.503937l0 0c0 -9.114868 -5.725647 -16.503937 -12.788574 -16.503937l-119.978546 0c-7.062931 0 -12.788569 -7.3890686 -12.788569 -16.503937" fill-rule="nonzero"></path><path fill="#000000" fill-opacity="0.0" d="m144.98032 193.89896l29.039368 0l0 37.354324l-29.039368 0z" fill-rule="nonzero"></path><path fill="#cc4125" d="m156.33969 209.64708q0 -0.390625 0.015625 -0.734375q0.015625 -0.34375 0.046875 -0.640625l-1.375 0.09375l0 -0.84375l4.28125 0l0 0.625q-0.546875 0.015625 -0.8125 0.203125q-0.265625 0.171875 -0.375 0.484375q-0.109375 0.296875 -0.125 0.71875q0 0.421875 0 0.9375l0 3.109375l1.421875 0l2.375 -3.75q0.125 -0.1875 0.265625 -0.390625q0.15625 -0.21875 0.328125 -0.421875q0.171875 -0.21875 0.359375 -0.421875q0.203125 -0.203125 0.40625 -0.359375l-1.171875 0.03125l0 -0.765625l4.09375 0l0 0.625q-0.609375 0.046875 -1.109375 0.171875q-0.484375 0.109375 -0.9375 0.390625q-0.4375 0.265625 -0.875 0.75q-0.4375 0.46875 -0.921875 1.25l-1.859375 2.96875q0.265625 0.15625 0.484375 0.359375q0.21875 0.1875 0.390625 0.390625q0.1875 0.203125 0.359375 0.421875q0.171875 0.21875 0.34375 0.4375l2.125 2.828125q0.53125 0.734375 0.921875 1.140625q0.390625 0.40625 0.703125 0.625q0.328125 0.203125 0.59375 0.265625q0.265625 0.046875 0.578125 0.046875l0 0.625l-2.328125 0q-0.140625 0 -0.359375 -0.15625q-0.203125 -0.15625 -0.46875 -0.40625q-0.25 -0.265625 -0.53125 -0.59375q-0.28125 -0.34375 -0.5625 -0.703125l-2.265625 -3.078125q-0.359375 -0.46875 -0.734375 -0.890625q-0.359375 -0.4375 -0.703125 -0.640625l-0.921875 0.015625l0 4.1875q0 0.515625 -0.015625 0.890625q-0.015625 0.375 -0.046875 0.609375l1.375 -0.0625l0 0.828125l-4.28125 0l0 -0.625q0.546875 -0.03125 0.8125 -0.203125q0.265625 -0.171875 0.375 -0.46875q0.109375 -0.3125 0.109375 -0.734375q0.015625 -0.421875 0.015625 -0.921875l0 -8.21875z" fill-rule="nonzero"></path><path fill="#000000" fill-opacity="0.0" d="m587.96063 89.249344l285.19684 0l0 285.19684l-285.19684 0z" fill-rule="nonzero"></path><path stroke="#000000" stroke-width="2.0" stroke-linejoin="round" stroke-linecap="butt" d="m587.96063 89.249344l285.19684 0l0 285.19684l-285.19684 0z" fill-rule="nonzero"></path><path fill="#000000" fill-opacity="0.0" d="m587.9659 374.4462l85.79529 0" fill-rule="nonzero"></path><path stroke="#cc4125" stroke-width="2.0" stroke-linejoin="round" stroke-linecap="butt" d="m587.9659 374.4462l73.79529 0" fill-rule="evenodd"></path><path fill="#cc4125" stroke="#cc4125" stroke-width="2.0" stroke-linecap="butt" d="m661.76117 377.74966l9.076172 -3.3034668l-9.076172 -3.3034668z" fill-rule="evenodd"></path><path fill="#000000" fill-opacity="0.0" d="m587.9921 374.58005l-0.03149414 -79.212585" fill-rule="nonzero"></path><path stroke="#cc4125" stroke-width="2.0" stroke-linejoin="round" stroke-linecap="butt" d="m587.9921 374.58005l-0.026733398 -67.212585" fill-rule="evenodd"></path><path fill="#cc4125" stroke="#cc4125" stroke-width="2.0" stroke-linecap="butt" d="m591.26886 307.36615l-3.3070679 -9.07489l-3.2998657 9.077515z" fill-rule="evenodd"></path><path fill="#000000" fill-opacity="0.0" d="m638.02625 336.7953l47.748047 0l0 37.35431l-47.748047 0z" fill-rule="nonzero"></path><path fill="#cc4125" d="m649.4325 352.19965q0.1875 0.203125 0.265625 0.421875q0.078125 0.21875 0.078125 0.421875q0 0.125 -0.046875 0.28125q-0.046875 0.15625 -0.15625 0.296875q-0.109375 0.125 -0.28125 0.21875q-0.171875 0.09375 -0.4375 0.09375q-0.421875 -0.03125 -0.65625 -0.328125q-0.21875 -0.296875 -0.21875 -0.734375q0 -0.390625 0.25 -0.875q0.25 -0.484375 0.75 -0.90625q0.5 -0.421875 1.234375 -0.703125q0.75 -0.28125 1.734375 -0.28125q0.75 0 1.46875 0.1875q0.71875 0.171875 1.28125 0.578125q0.5625 0.390625 0.90625 1.0625q0.34375 0.65625 0.34375 1.625q0 0.484375 -0.21875 1.03125q-0.203125 0.546875 -0.65625 1.1875q-0.4375 0.625 -1.140625 1.34375q-0.703125 0.71875 -1.71875 1.546875q-0.65625 0.53125 -1.203125 1.046875q-0.53125 0.5 -0.9375 0.96875q-0.390625 0.453125 -0.640625 0.859375q-0.234375 0.40625 -0.296875 0.734375l3.359375 0.09375q0.703125 0.015625 1.28125 0.03125q0.578125 0 1.0 -0.109375q0.421875 -0.125 0.65625 -0.40625q0.234375 -0.28125 0.234375 -0.828125l0.578125 0l-0.125 2.65625l-8.21875 0q0 -1.0 0.3125 -1.78125q0.328125 -0.78125 0.84375 -1.4375q0.53125 -0.671875 1.203125 -1.28125q0.671875 -0.609375 1.390625 -1.296875q1.234375 -1.171875 1.78125 -2.171875q0.546875 -1.015625 0.546875 -1.953125q0 -0.53125 -0.109375 -1.046875q-0.09375 -0.53125 -0.375 -0.953125q-0.265625 -0.421875 -0.71875 -0.6875q-0.4375 -0.265625 -1.125 -0.265625q-0.390625 0 -0.75 0.109375q-0.359375 0.109375 -0.65625 0.296875q-0.28125 0.171875 -0.5 0.421875q-0.203125 0.25 -0.3125 0.53125zm9.332947 14.53125q0.171875 -0.1875 0.34375 -0.53125q0.171875 -0.328125 0.296875 -0.734375q0.140625 -0.40625 0.21875 -0.859375q0.078125 -0.453125 0.015625 -0.890625q-0.265625 0.125 -0.515625 0.09375q-0.234375 -0.015625 -0.421875 -0.125q-0.1875 -0.125 -0.296875 -0.328125q-0.109375 -0.203125 -0.109375 -0.453125q0 -0.53125 0.296875 -0.8125q0.3125 -0.296875 0.75 -0.296875q0.328125 0 0.578125 0.140625q0.25 0.125 0.421875 0.359375q0.171875 0.234375 0.25 0.546875q0.09375 0.3125 0.09375 0.6875q0 0.359375 -0.109375 0.84375q-0.09375 0.484375 -0.28125 0.984375q-0.171875 0.5 -0.4375 0.96875q-0.265625 0.46875 -0.578125 0.78125l-0.515625 -0.375zm12.628723 -5.078125q0 0.359375 -0.015625 0.703125q0 0.328125 -0.046875 0.59375l1.59375 -0.0625l0 0.828125l-4.84375 0l0 -0.625q0.5 -0.03125 0.8125 -0.1875q0.328125 -0.15625 0.5 -0.421875q0.1875 -0.28125 0.265625 -0.671875q0.078125 -0.390625 0.078125 -0.890625l-0.015625 -8.96875l-0.046875 0l-2.28125 1.484375l-0.375 -0.5625l3.703125 -2.765625l0.640625 0l0.03125 11.546875z" fill-rule="nonzero"></path><path fill="#000000" fill-opacity="0.0" d="m587.96063 299.44095l29.039368 0l0 37.35434l-29.039368 0z" fill-rule="nonzero"></path><path fill="#cc4125" d="m599.5075 314.86093q0.171875 0.1875 0.234375 0.390625q0.078125 0.203125 0.078125 0.390625q0 0.109375 -0.046875 0.265625q-0.046875 0.140625 -0.15625 0.265625q-0.09375 0.125 -0.265625 0.21875q-0.15625 0.09375 -0.40625 0.078125q-0.40625 -0.015625 -0.625 -0.296875q-0.203125 -0.28125 -0.203125 -0.6875q0 -0.390625 0.234375 -0.859375q0.25 -0.484375 0.71875 -0.890625q0.484375 -0.421875 1.203125 -0.703125q0.734375 -0.28125 1.71875 -0.28125q0.765625 0 1.453125 0.1875q0.703125 0.171875 1.21875 0.578125q0.53125 0.390625 0.84375 1.015625q0.328125 0.625 0.328125 1.515625q0 0.453125 -0.171875 0.90625q-0.15625 0.453125 -0.515625 0.875q-0.359375 0.40625 -0.953125 0.765625q-0.59375 0.359375 -1.46875 0.625l0 0.03125q0.890625 0.09375 1.609375 0.390625q0.71875 0.296875 1.21875 0.765625q0.5 0.453125 0.765625 1.078125q0.28125 0.625 0.28125 1.359375q0 0.96875 -0.40625 1.6875q-0.390625 0.71875 -1.0625 1.1875q-0.65625 0.46875 -1.53125 0.703125q-0.859375 0.25 -1.78125 0.25q-1.03125 0 -1.796875 -0.25q-0.75 -0.25 -1.25 -0.625q-0.5 -0.390625 -0.75 -0.84375q-0.234375 -0.453125 -0.234375 -0.875q0 -0.421875 0.21875 -0.71875q0.234375 -0.3125 0.65625 -0.328125q0.265625 -0.015625 0.4375 0.078125q0.171875 0.078125 0.265625 0.21875q0.109375 0.125 0.140625 0.28125q0.046875 0.15625 0.046875 0.28125q0 0.203125 -0.0625 0.390625q-0.046875 0.1875 -0.140625 0.375q0.09375 0.328125 0.3125 0.5625q0.234375 0.21875 0.546875 0.359375q0.328125 0.140625 0.6875 0.21875q0.375 0.0625 0.765625 0.0625q0.671875 0 1.21875 -0.1875q0.5625 -0.1875 0.953125 -0.546875q0.390625 -0.375 0.59375 -0.90625q0.21875 -0.546875 0.21875 -1.25q0 -0.625 -0.140625 -1.21875q-0.140625 -0.59375 -0.515625 -1.046875q-0.375 -0.453125 -1.03125 -0.71875q-0.65625 -0.265625 -1.6875 -0.25q-0.328125 0 -0.6875 0.03125l0 -0.859375l0.765625 0q0.765625 0 1.265625 -0.265625q0.5 -0.28125 0.796875 -0.6875q0.3125 -0.40625 0.4375 -0.875q0.125 -0.46875 0.125 -0.859375q0 -0.578125 -0.109375 -1.078125q-0.09375 -0.515625 -0.359375 -0.875q-0.25 -0.359375 -0.6875 -0.5625q-0.4375 -0.21875 -1.078125 -0.21875q-0.4375 0 -0.8125 0.125q-0.375 0.125 -0.671875 0.328125q-0.28125 0.203125 -0.484375 0.453125q-0.1875 0.234375 -0.265625 0.46875z" fill-rule="nonzero"></path><path fill="#000000" fill-opacity="0.0" d="m587.9659 39.650917l0 46.866142" fill-rule="nonzero"></path><path stroke="#cc4125" stroke-width="2.0" stroke-linejoin="round" stroke-linecap="butt" d="m587.9659 39.650917l0 34.866142" fill-rule="evenodd"></path><path fill="#cc4125" stroke="#cc4125" stroke-width="2.0" stroke-linecap="butt" d="m584.6624 74.51706l3.3034668 9.076195l3.3034668 -9.076195z" fill-rule="evenodd"></path><path fill="#000000" fill-opacity="0.0" d="m873.1575 38.643044l0 47.874016" fill-rule="nonzero"></path><path stroke="#cc4125" stroke-width="2.0" stroke-linejoin="round" stroke-linecap="butt" d="m873.1575 38.643044l0 35.874016" fill-rule="evenodd"></path><path fill="#cc4125" stroke="#cc4125" stroke-width="2.0" stroke-linecap="butt" d="m869.854 74.51706l3.3034668 9.076195l3.3034668 -9.076195z" fill-rule="evenodd"></path><path fill="#000000" fill-opacity="0.0" d="m587.0525 40.3937l286.99213 -0.88188934" fill-rule="nonzero"></path><path stroke="#cc4125" stroke-width="2.0" stroke-linejoin="round" stroke-linecap="butt" d="m587.0525 40.3937l286.99213 -0.88188934" fill-rule="nonzero"></path><path fill="#000000" fill-opacity="0.0" d="m609.8739 396.16434l0 0c0 2.1532593 -1.7456055 3.8988037 -3.8988037 3.8988037l0 0c-1.0340576 0 -2.0256958 -0.4107666 -2.756897 -1.1419373c-0.73114014 -0.73117065 -1.1419067 -1.7228394 -1.1419067 -2.7568665l0 0c0 -2.1532593 1.7455444 -3.8988037 3.8988037 -3.8988037l0 0c2.1531982 0 3.8988037 1.7455444 3.8988037 3.8988037z" fill-rule="nonzero"></path><path stroke="#000000" stroke-width="2.0" stroke-linejoin="round" stroke-linecap="butt" d="m609.8739 396.16434l0 0c0 2.1532593 -1.7456055 3.8988037 -3.8988037 3.8988037l0 0c-1.0340576 0 -2.0256958 -0.4107666 -2.756897 -1.1419373c-0.73114014 -0.73117065 -1.1419067 -1.7228394 -1.1419067 -2.7568665l0 0c0 -2.1532593 1.7455444 -3.8988037 3.8988037 -3.8988037l0 0c2.1531982 0 3.8988037 1.7455444 3.8988037 3.8988037z" fill-rule="nonzero"></path><path fill="#000000" fill-opacity="0.0" d="m597.36945 396.16434l0 0c0 2.1532593 -1.7455444 3.8988037 -3.8988037 3.8988037l0 0c-1.0339966 0 -2.0256958 -0.4107666 -2.756836 -1.1419373c-0.7312012 -0.73117065 -1.1419678 -1.7228394 -1.1419678 -2.7568665l0 0c0 -2.1532593 1.7455444 -3.8988037 3.8988037 -3.8988037l0 0c2.1532593 0 3.8988037 1.7455444 3.8988037 3.8988037z" fill-rule="nonzero"></path><path stroke="#000000" stroke-width="2.0" stroke-linejoin="round" stroke-linecap="butt" d="m597.36945 396.16434l0 0c0 2.1532593 -1.7455444 3.8988037 -3.8988037 3.8988037l0 0c-1.0339966 0 -2.0256958 -0.4107666 -2.756836 -1.1419373c-0.7312012 -0.73117065 -1.1419678 -1.7228394 -1.1419678 -2.7568665l0 0c0 -2.1532593 1.7455444 -3.8988037 3.8988037 -3.8988037l0 0c2.1532593 0 3.8988037 1.7455444 3.8988037 3.8988037z" fill-rule="nonzero"></path><path fill="#000000" fill-opacity="0.0" d="m608.5276 391.45145l-18.955383 0l9.939636 -16.480316l10.362183 16.467194z" fill-rule="nonzero"></path><path stroke="#000000" stroke-width="2.0" stroke-linejoin="round" stroke-linecap="butt" d="m608.5276 391.45145l-18.955383 0l9.939636 -16.480316l10.362183 16.467194z" fill-rule="nonzero"></path><path fill="#000000" fill-opacity="0.0" d="m610.57086 401.2673l-22.141724 0" fill-rule="nonzero"></path><path stroke="#000000" stroke-width="2.0" stroke-linejoin="round" stroke-linecap="butt" d="m610.57086 401.2673l-22.141724 0" fill-rule="nonzero"></path><path fill="#000000" fill-opacity="0.0" d="m609.7126 401.2673l-6.015747 7.5275574" fill-rule="nonzero"></path><path stroke="#000000" stroke-width="2.0" stroke-linejoin="round" stroke-linecap="butt" d="m609.7126 401.2673l-6.015747 7.5275574" fill-rule="nonzero"></path><path fill="#000000" fill-opacity="0.0" d="m590.4829 401.40378l-6.015747 7.5275574" fill-rule="nonzero"></path><path stroke="#000000" stroke-width="2.0" stroke-linejoin="round" stroke-linecap="butt" d="m590.4829 401.40378l-6.015747 7.5275574" fill-rule="nonzero"></path><path fill="#000000" fill-opacity="0.0" d="m600.09845 401.2673l-6.015747 7.5275574" fill-rule="nonzero"></path><path stroke="#000000" stroke-width="2.0" stroke-linejoin="round" stroke-linecap="butt" d="m600.09845 401.2673l-6.015747 7.5275574" fill-rule="nonzero"></path><path fill="#000000" fill-opacity="0.0" d="m595.1076 401.2673l-6.015747 7.5275574" fill-rule="nonzero"></path><path stroke="#000000" stroke-width="2.0" stroke-linejoin="round" stroke-linecap="butt" d="m595.1076 401.2673l-6.015747 7.5275574" fill-rule="nonzero"></path><path fill="#000000" fill-opacity="0.0" d="m604.79266 401.2673l-6.015747 7.5275574" fill-rule="nonzero"></path><path stroke="#000000" stroke-width="2.0" stroke-linejoin="round" stroke-linecap="butt" d="m604.79266 401.2673l-6.015747 7.5275574" fill-rule="nonzero"></path><path fill="#000000" fill-opacity="0.0" d="m872.45917 396.15765l0 0c0 2.156952 -1.7485962 3.9055176 -3.9055176 3.9055176l0 0c-1.0358276 0 -2.0291748 -0.41149902 -2.7615967 -1.1439209c-0.7324219 -0.7324219 -1.1439209 -1.7257996 -1.1439209 -2.7615967l0 0c0 -2.156952 1.7485352 -3.9055176 3.9055176 -3.9055176l0 0c2.1569214 0 3.9055176 1.7485657 3.9055176 3.9055176z" fill-rule="nonzero"></path><path stroke="#000000" stroke-width="2.0" stroke-linejoin="round" stroke-linecap="butt" d="m872.45917 396.15765l0 0c0 2.156952 -1.7485962 3.9055176 -3.9055176 3.9055176l0 0c-1.0358276 0 -2.0291748 -0.41149902 -2.7615967 -1.1439209c-0.7324219 -0.7324219 -1.1439209 -1.7257996 -1.1439209 -2.7615967l0 0c0 -2.156952 1.7485352 -3.9055176 3.9055176 -3.9055176l0 0c2.1569214 0 3.9055176 1.7485657 3.9055176 3.9055176z" fill-rule="nonzero"></path><path fill="#000000" fill-opacity="0.0" d="m859.9547 396.15765l0 0c0 2.156952 -1.7485352 3.9055176 -3.9055176 3.9055176l0 0c-1.0357666 0 -2.0291748 -0.41149902 -2.7615967 -1.1439209c-0.7324219 -0.7324219 -1.1439209 -1.7257996 -1.1439209 -2.7615967l0 0c0 -2.156952 1.7485962 -3.9055176 3.9055176 -3.9055176l0 0c2.1569824 0 3.9055176 1.7485657 3.9055176 3.9055176z" fill-rule="nonzero"></path><path stroke="#000000" stroke-width="2.0" stroke-linejoin="round" stroke-linecap="butt" d="m859.9547 396.15765l0 0c0 2.156952 -1.7485352 3.9055176 -3.9055176 3.9055176l0 0c-1.0357666 0 -2.0291748 -0.41149902 -2.7615967 -1.1439209c-0.7324219 -0.7324219 -1.1439209 -1.7257996 -1.1439209 -2.7615967l0 0c0 -2.156952 1.7485962 -3.9055176 3.9055176 -3.9055176l0 0c2.1569824 0 3.9055176 1.7485657 3.9055176 3.9055176z" fill-rule="nonzero"></path><path fill="#000000" fill-opacity="0.0" d="m871.11285 391.45145l-18.955383 0l9.939636 -16.480316l10.362183 16.467194z" fill-rule="nonzero"></path><path stroke="#000000" stroke-width="2.0" stroke-linejoin="round" stroke-linecap="butt" d="m871.11285 391.45145l-18.955383 0l9.939636 -16.480316l10.362183 16.467194z" fill-rule="nonzero"></path><path fill="#000000" fill-opacity="0.0" d="m873.1562 401.2673l-22.141724 0" fill-rule="nonzero"></path><path stroke="#000000" stroke-width="2.0" stroke-linejoin="round" stroke-linecap="butt" d="m873.1562 401.2673l-22.141724 0" fill-rule="nonzero"></path><path fill="#000000" fill-opacity="0.0" d="m872.2979 401.2673l-6.015747 7.5275574" fill-rule="nonzero"></path><path stroke="#000000" stroke-width="2.0" stroke-linejoin="round" stroke-linecap="butt" d="m872.2979 401.2673l-6.015747 7.5275574" fill-rule="nonzero"></path><path fill="#000000" fill-opacity="0.0" d="m853.06824 401.40378l-6.015747 7.5275574" fill-rule="nonzero"></path><path stroke="#000000" stroke-width="2.0" stroke-linejoin="round" stroke-linecap="butt" d="m853.06824 401.40378l-6.015747 7.5275574" fill-rule="nonzero"></path><path fill="#000000" fill-opacity="0.0" d="m862.6837 401.2673l-6.015747 7.5275574" fill-rule="nonzero"></path><path stroke="#000000" stroke-width="2.0" stroke-linejoin="round" stroke-linecap="butt" d="m862.6837 401.2673l-6.015747 7.5275574" fill-rule="nonzero"></path><path fill="#000000" fill-opacity="0.0" d="m857.69293 401.2673l-6.015747 7.5275574" fill-rule="nonzero"></path><path stroke="#000000" stroke-width="2.0" stroke-linejoin="round" stroke-linecap="butt" d="m857.69293 401.2673l-6.015747 7.5275574" fill-rule="nonzero"></path><path fill="#000000" fill-opacity="0.0" d="m867.3779 401.2673l-6.015747 7.5275574" fill-rule="nonzero"></path><path stroke="#000000" stroke-width="2.0" stroke-linejoin="round" stroke-linecap="butt" d="m867.3779 401.2673l-6.015747 7.5275574" fill-rule="nonzero"></path><path fill="#000000" fill-opacity="0.0" d="m741.1665 396.15765l0 0c0 2.156952 -1.7485352 3.9055176 -3.9055176 3.9055176l0 0c-1.0358276 0 -2.0291748 -0.41149902 -2.7615967 -1.1439209c-0.7324219 -0.7324219 -1.1439209 -1.7257996 -1.1439209 -2.7615967l0 0c0 -2.156952 1.7485962 -3.9055176 3.9055176 -3.9055176l0 0c2.1569824 0 3.9055176 1.7485657 3.9055176 3.9055176z" fill-rule="nonzero"></path><path stroke="#000000" stroke-width="2.0" stroke-linejoin="round" stroke-linecap="butt" d="m741.1665 396.15765l0 0c0 2.156952 -1.7485352 3.9055176 -3.9055176 3.9055176l0 0c-1.0358276 0 -2.0291748 -0.41149902 -2.7615967 -1.1439209c-0.7324219 -0.7324219 -1.1439209 -1.7257996 -1.1439209 -2.7615967l0 0c0 -2.156952 1.7485962 -3.9055176 3.9055176 -3.9055176l0 0c2.1569824 0 3.9055176 1.7485657 3.9055176 3.9055176z" fill-rule="nonzero"></path><path fill="#000000" fill-opacity="0.0" d="m728.66205 396.15765l0 0c0 2.156952 -1.7485352 3.9055176 -3.9054565 3.9055176l0 0c-1.0358276 0 -2.0292358 -0.41149902 -2.7616577 -1.1439209c-0.7324219 -0.7324219 -1.1438599 -1.7257996 -1.1438599 -2.7615967l0 0c0 -2.156952 1.7485352 -3.9055176 3.9055176 -3.9055176l0 0c2.1569214 0 3.9054565 1.7485657 3.9054565 3.9055176z" fill-rule="nonzero"></path><path stroke="#000000" stroke-width="2.0" stroke-linejoin="round" stroke-linecap="butt" d="m728.66205 396.15765l0 0c0 2.156952 -1.7485352 3.9055176 -3.9054565 3.9055176l0 0c-1.0358276 0 -2.0292358 -0.41149902 -2.7616577 -1.1439209c-0.7324219 -0.7324219 -1.1438599 -1.7257996 -1.1438599 -2.7615967l0 0c0 -2.156952 1.7485352 -3.9055176 3.9055176 -3.9055176l0 0c2.1569214 0 3.9054565 1.7485657 3.9054565 3.9055176z" fill-rule="nonzero"></path><path fill="#000000" fill-opacity="0.0" d="m739.8202 391.45145l-18.955383 0l9.939636 -16.480316l10.362244 16.467194z" fill-rule="nonzero"></path><path stroke="#000000" stroke-width="2.0" stroke-linejoin="round" stroke-linecap="butt" d="m739.8202 391.45145l-18.955383 0l9.939636 -16.480316l10.362244 16.467194z" fill-rule="nonzero"></path><path fill="#000000" fill-opacity="0.0" d="m741.8635 401.2673l-22.141724 0" fill-rule="nonzero"></path><path stroke="#000000" stroke-width="2.0" stroke-linejoin="round" stroke-linecap="butt" d="m741.8635 401.2673l-22.141724 0" fill-rule="nonzero"></path><path fill="#000000" fill-opacity="0.0" d="m741.00525 401.2673l-6.015747 7.5275574" fill-rule="nonzero"></path><path stroke="#000000" stroke-width="2.0" stroke-linejoin="round" stroke-linecap="butt" d="m741.00525 401.2673l-6.015747 7.5275574" fill-rule="nonzero"></path><path fill="#000000" fill-opacity="0.0" d="m721.7756 401.40378l-6.015747 7.5275574" fill-rule="nonzero"></path><path stroke="#000000" stroke-width="2.0" stroke-linejoin="round" stroke-linecap="butt" d="m721.7756 401.40378l-6.015747 7.5275574" fill-rule="nonzero"></path><path fill="#000000" fill-opacity="0.0" d="m731.39105 401.2673l-6.015747 7.5275574" fill-rule="nonzero"></path><path stroke="#000000" stroke-width="2.0" stroke-linejoin="round" stroke-linecap="butt" d="m731.39105 401.2673l-6.015747 7.5275574" fill-rule="nonzero"></path><path fill="#000000" fill-opacity="0.0" d="m726.40027 401.2673l-6.015747 7.5275574" fill-rule="nonzero"></path><path stroke="#000000" stroke-width="2.0" stroke-linejoin="round" stroke-linecap="butt" d="m726.40027 401.2673l-6.015747 7.5275574" fill-rule="nonzero"></path><path fill="#000000" fill-opacity="0.0" d="m736.0853 401.2673l-6.015747 7.5275574" fill-rule="nonzero"></path><path stroke="#000000" stroke-width="2.0" stroke-linejoin="round" stroke-linecap="butt" d="m736.0853 401.2673l-6.015747 7.5275574" fill-rule="nonzero"></path><path fill="#000000" fill-opacity="0.0" d="m730.5591 39.643044l-0.03149414 46.960632" fill-rule="nonzero"></path><path stroke="#cc4125" stroke-width="2.0" stroke-linejoin="round" stroke-linecap="butt" d="m730.5591 39.643044l-0.023498535 34.96064" fill-rule="evenodd"></path><path fill="#cc4125" stroke="#cc4125" stroke-width="2.0" stroke-linecap="butt" d="m727.2321 74.60146l3.2974243 9.078407l3.3095093 -9.073975z" fill-rule="evenodd"></path><path fill="#000000" fill-opacity="0.0" d="m804.06824 39.643044l-0.03149414 46.960632" fill-rule="nonzero"></path><path stroke="#cc4125" stroke-width="2.0" stroke-linejoin="round" stroke-linecap="butt" d="m804.06824 39.643044l-0.0234375 34.96064" fill-rule="evenodd"></path><path fill="#cc4125" stroke="#cc4125" stroke-width="2.0" stroke-linecap="butt" d="m800.74133 74.60146l3.2973633 9.078407l3.3095703 -9.073975z" fill-rule="evenodd"></path><path fill="#000000" fill-opacity="0.0" d="m656.29004 39.643044l-0.03149414 46.960632" fill-rule="nonzero"></path><path stroke="#cc4125" stroke-width="2.0" stroke-linejoin="round" stroke-linecap="butt" d="m656.29004 39.643044l-0.023498535 34.96064" fill-rule="evenodd"></path><path fill="#cc4125" stroke="#cc4125" stroke-width="2.0" stroke-linecap="butt" d="m652.96313 74.60146l3.2973633 9.078407l3.3095703 -9.073975z" fill-rule="evenodd"></path></g></svg>

